<svg id="Layer_1" data-name="Layer 1" xmlns="http://www.w3.org/2000/svg" viewBox="0 0 310 310"><defs><style>.cls-1{fill:#80cee5;}.cls-2{fill:#fff;}</style></defs><title>blade</title><path class="cls-1" d="M43.7,191.54a2.14,2.14,0,0,0,2.13-2l.29-5.47,3.65,4.09A2.14,2.14,0,1,0,53,185.28l-5.84-6.53L53,172.21a2.14,2.14,0,0,0-3.19-2.85l-3.06,3.43.24-4.59a2.14,2.14,0,1,0-4.27-.22l-.29,5.47-3.65-4.09a2.14,2.14,0,0,0-3.19,2.85l5.84,6.53-5.84,6.53a2.14,2.14,0,1,0,3.19,2.85l3.06-3.43-.24,4.59a2.14,2.14,0,0,0,2,2.25Z"/><path class="cls-1" d="M165.25,267.58a2.14,2.14,0,0,0-3,.17l-.78.87.06-1.17a2.14,2.14,0,0,0-4.27-.22l-.11,2-1.37-1.53a2.14,2.14,0,0,0-3.19,2.85l3.55,4-3.55,4a2.14,2.14,0,0,0,3.19,2.85l.78-.87-.06,1.17a2.14,2.14,0,0,0,2,2.25h.11a2.14,2.14,0,0,0,2.13-2l.11-2,1.37,1.53a2.14,2.14,0,1,0,3.19-2.85l-3.55-4,3.55-4A2.14,2.14,0,0,0,165.25,267.58Z"/><path class="cls-1" d="M205,98.31a2.14,2.14,0,0,0,3-.17l.78-.87-.06,1.17a2.14,2.14,0,0,0,2,2.25h.11a2.14,2.14,0,0,0,2.13-2l.11-2,1.37,1.53a2.14,2.14,0,0,0,3.19-2.85l-3.55-4,3.55-4a2.14,2.14,0,0,0-3.19-2.85l-.78.87.06-1.17a2.14,2.14,0,1,0-4.27-.22l-.11,2L208,84.49a2.14,2.14,0,0,0-3.19,2.85l3.55,4-3.55,4A2.14,2.14,0,0,0,205,98.31Z"/><path class="cls-2" d="M168.62,107.55a4.81,4.81,0,0,0,4.43-6.69L163.42,78.2A4.81,4.81,0,1,0,154.57,82l9.62,22.66A4.81,4.81,0,0,0,168.62,107.55Z"/><path class="cls-2" d="M144.16,120.31,126.69,103a4.81,4.81,0,1,0-6.78,6.83l17.47,17.34a4.81,4.81,0,0,0,6.78-6.83Z"/><path class="cls-2" d="M126.65,265.69l78.7-88.9a34.11,34.11,0,0,0-2.93-48.1c-.34-.3-.69-.59-1-.88L151.23,9.91a6.43,6.43,0,0,0-5.67-3.79,6.59,6.59,0,0,0-6.22,3.19c-5.79,10.18-18.33,36.28-9.86,58.64,2.88,7.6,7,17.5,11.28,27.66L117.35,71.83a4.82,4.82,0,0,0-1.62-1.08L81.39,56.8a4.81,4.81,0,0,0-6.33,6.1L88,98.51a4.83,4.83,0,0,0,1.1,1.74l33.37,33.88c-5.06-.67-8.86,3.49-11.46,6.35-.65.71-1.58,1.74-2.35,2.44-.17-1-.26-2.42-.32-3.39-.28-4.26-.71-10.7-6.58-12.72s-10.07,2.75-12.87,5.89a33.24,33.24,0,0,1-2.64,2.75,34,34,0,0,1-.29-3.49c-.21-4.28-.52-10.76-6.65-12.87s-10.4,2.82-13.23,6.07a31.71,31.71,0,0,1-2.53,2.69,19.67,19.67,0,0,1,0-2.14c0-2.27.11-7-4.38-8.53a4.81,4.81,0,0,0-5.23,7.66c0,.24,0,.5,0,.72,0,2.8-.15,9.37,6.46,11.79,6,2.19,10.21-2.66,13-5.87A30.37,30.37,0,0,1,76,128.65a30.13,30.13,0,0,1,.34,3.77c.2,4.23.51,10.61,6.53,12.68s10.33-2.79,13.2-6c.64-.72,1.56-1.76,2.32-2.46.18,1.05.28,2.51.34,3.52.28,4.23.7,10.63,6.52,12.63s10-2.73,12.87-5.84a34.08,34.08,0,0,1,2.7-2.75,35.08,35.08,0,0,1,.29,3.54c.21,4.26.52,10.69,6.51,12.75a9.26,9.26,0,0,0,.95.26L75.62,220.52a34,34,0,0,0,25.45,56.63c.71,0,1.42,0,2.13-.06A33.83,33.83,0,0,0,126.65,265.69ZM138.48,64.54c-5.91-15.59,1.34-34.73,6.37-45l43.24,101.66a34.3,34.3,0,0,0-20.79,1.37l-7.85-8C152.27,98.18,143.5,77.78,138.48,64.54ZM96.65,94.25,87.79,69.78l23.4,9.5,47.49,48.21a34.1,34.1,0,0,0-4.37,4.12l-9.06,10.24a7.82,7.82,0,0,0-1.85-.15Zm38.2,52.49c-.41.44-.8.87-1.16,1.27A34,34,0,0,1,131,150.8a34.75,34.75,0,0,1-.29-3.53,33,33,0,0,0-.57-5.34ZM102.62,267.48a24.46,24.46,0,0,1-19.8-40.59l78.7-88.9a24.46,24.46,0,0,1,36.63,32.42l-78.7,88.9A24.28,24.28,0,0,1,102.62,267.48Z"/><path class="cls-2" d="M101.24,231.05A11.94,11.94,0,1,0,113.18,243,11.95,11.95,0,0,0,101.24,231.05Zm0,14.25a2.32,2.32,0,1,1,2.32-2.32A2.32,2.32,0,0,1,101.24,245.3Z"/><path class="cls-2" d="M184.74,139.42a4.81,4.81,0,1,0-2.84,9.19c.63.2,6.15,2.14,4.44,10.17a4.81,4.81,0,1,0,9.41,2C198.59,147.45,189.79,141,184.74,139.42Z"/><path class="cls-2" d="M175.9,170l-32.6,35.54a4.81,4.81,0,0,0,7.09,6.5L183,176.54a4.81,4.81,0,1,0-7.09-6.5Z"/><path class="cls-1" d="M77.16,181.88A4.81,4.81,0,0,0,83.62,189l14.79-13.42a4.81,4.81,0,0,0-1.87-8.18l-15.6-4.62A4.81,4.81,0,1,0,78.22,172l1.59.47,5.81,1.72-5.51,5Z"/><path class="cls-1" d="M48.08,233.65h0a4.81,4.81,0,0,0,4.81-4.79A22.42,22.42,0,0,1,62.58,210a4.81,4.81,0,0,0-4.88-8.29,32,32,0,0,0-14.41,27.15A4.81,4.81,0,0,0,48.08,233.65Z"/><path class="cls-1" d="M67.66,282.15l-8.09-7.79A44,44,0,0,0,67.66,282.15Z"/><path class="cls-1" d="M81.1,289.07a47.24,47.24,0,0,1-13.44-6.92,44,44,0,0,1-8.09-7.79A38.62,38.62,0,0,1,52.73,262a4.81,4.81,0,0,0-9.27,2.58c.27,1,7,24.48,34.61,33.61a4.81,4.81,0,0,0,3-9.13Z"/><path class="cls-1" d="M135.3,286.81c-8.26,8.26-24.39,7.43-24.68,7.42a4.81,4.81,0,0,0-.6,9.6c.15,0,.9.05,2.1.05,5.53,0,20.62-.91,30-10.27a4.81,4.81,0,1,0-6.8-6.8Z"/><path class="cls-1" d="M183.47,235.88l-12.16,13.71a4.81,4.81,0,1,0,7.2,6.38l12.16-13.71a4.81,4.81,0,1,0-7.2-6.38Z"/><path class="cls-1" d="M223.82,195.37a4.81,4.81,0,0,0-6.79.41l-7.19,8.11a4.81,4.81,0,1,0,7.2,6.38l7.19-8.11A4.81,4.81,0,0,0,223.82,195.37Z"/><path class="cls-1" d="M270.18,141.8H233.84a4.81,4.81,0,0,0-4.51,6.48,52.25,52.25,0,0,1,2.56,12c.49,5.51.07,13.07-4.65,17.8a4.81,4.81,0,1,0,6.8,6.8,25.33,25.33,0,0,0,6.63-12.24c1.84-7.66.77-15.75-.47-21.2h30a4.81,4.81,0,0,0,0-9.62Z"/><circle class="cls-1" cx="200.56" cy="222.56" r="4.9"/></svg>