<?xml version="1.0" encoding="utf-8"?>
<!-- Generator: Adobe Illustrator 21.0.0, SVG Export Plug-In . SVG Version: 6.00 Build 0)  -->
<svg version="1.1" id="Layer_1" xmlns="http://www.w3.org/2000/svg" xmlns:xlink="http://www.w3.org/1999/xlink" x="0px" y="0px"
	 viewBox="0 0 310 310" style="enable-background:new 0 0 310 310;" xml:space="preserve">
<style type="text/css">
	.st0{fill:#FE4A49;}
	.st1{fill:#FFFFFF;}
	.st2{fill:#80CEE5;}
</style>
<title>blade</title>
<path class="st0" d="M43.7,191.5c1.1,0,2.1-0.9,2.1-2l0.3-5.5l3.7,4.1c0.8,0.9,2.2,1,3.1,0.2s1-2.2,0.2-3.1l-5.8-6.5l5.8-6.5
	c0.8-0.9,0.6-2.3-0.3-3c-0.9-0.7-2.1-0.7-2.9,0.2l-3.1,3.4l0.2-4.6c0.1-1.2-0.7-2.2-1.9-2.3s-2.2,0.7-2.3,1.9c0,0.1,0,0.1,0,0.2
	l-0.3,5.5l-3.7-4.1c-0.8-0.9-2.2-0.9-3-0.1c-0.8,0.8-0.9,2.1-0.2,2.9l5.8,6.5l-5.8,6.5c-0.8,0.9-0.8,2.2,0.1,3s2.2,0.8,3-0.1
	l0.1-0.1l3.1-3.4l-0.2,4.6c-0.1,1.2,0.8,2.2,2,2.2L43.7,191.5z"/>
<path class="st0" d="M165.2,267.6c-0.9-0.8-2.2-0.7-3,0.2l-0.8,0.9l0.1-1.2c0-1.2-0.9-2.1-2.1-2.2c-1.1,0-2,0.8-2.1,1.9l-0.1,2
	l-1.4-1.5c-0.8-0.9-2.2-0.9-3-0.1s-0.9,2.1-0.2,2.9l3.6,4l-3.6,4c-0.8,0.9-0.6,2.3,0.3,3c0.9,0.7,2.1,0.7,2.9-0.2l0.8-0.9l-0.1,1.2
	c-0.1,1.2,0.8,2.2,2,2.2h0.1c1.1,0,2.1-0.9,2.1-2l0.1-2l1.4,1.5c0.8,0.9,2.1,1,3,0.3c0.9-0.8,1-2.1,0.3-3l-0.1-0.1l-3.6-4l3.6-4
	C166.2,269.8,166.2,268.4,165.2,267.6C165.3,267.6,165.3,267.6,165.2,267.6z"/>
<path class="st0" d="M205,98.3c0.9,0.8,2.2,0.7,3-0.2l0.8-0.9l-0.1,1.2c-0.1,1.2,0.8,2.2,2,2.2h0.1c1.1,0,2.1-0.9,2.1-2l0.1-2
	l1.4,1.5c0.8,0.9,2.2,0.9,3,0.1s0.9-2.1,0.2-2.9l-3.6-4l3.6-4c0.8-0.9,0.6-2.3-0.3-3c-0.9-0.7-2.1-0.7-2.9,0.2l-0.8,0.9l0.1-1.2
	c0.1-1.2-0.7-2.2-1.9-2.3s-2.2,0.7-2.3,1.9c0,0.1,0,0.1,0,0.2l-0.1,2l-1.3-1.5c-0.8-0.9-2.2-0.9-3-0.1s-0.9,2.1-0.2,2.9l3.6,4
	l-3.6,4C204.1,96.2,204.1,97.5,205,98.3z"/>
<path class="st1" d="M168.6,107.6c2.7,0,4.8-2.2,4.8-4.8c0-0.6-0.1-1.3-0.4-1.9l-9.6-22.7c-1-2.4-3.9-3.6-6.3-2.5s-3.6,3.9-2.5,6.3
	l0,0l9.6,22.7C165,106.4,166.7,107.6,168.6,107.6z"/>
<path class="st1" d="M144.2,120.3L126.7,103c-1.9-1.9-4.9-1.9-6.8,0s-1.9,4.9,0,6.8l17.5,17.3c1.9,1.9,4.9,1.9,6.8,0
	C146.1,125.3,146,122.2,144.2,120.3L144.2,120.3L144.2,120.3z"/>
<path class="st1" d="M126.7,265.7l78.7-88.9c12.5-14.1,11.1-35.6-2.9-48.1c-0.3-0.3-0.7-0.6-1-0.9L151.2,9.9c-1-2.2-3.2-3.7-5.7-3.8
	c-2.5-0.2-4.9,1-6.2,3.2c-5.8,10.2-18.3,36.3-9.9,58.6c2.9,7.6,7,17.5,11.3,27.7l-23.4-23.8c-0.5-0.5-1-0.8-1.6-1.1l-34.3-14
	c-2.5-1-5.3,0.2-6.3,2.6c-0.4,1.1-0.5,2.3-0.1,3.5l13,35.7c0.2,0.7,0.6,1.2,1.1,1.7l33.4,33.9c-5.1-0.7-8.9,3.5-11.5,6.4
	c-0.7,0.7-1.6,1.7-2.3,2.4c-0.2-1-0.3-2.4-0.3-3.4c-0.3-4.3-0.7-10.7-6.6-12.7s-10.1,2.8-12.9,5.9c-0.8,1-1.7,1.9-2.6,2.8
	c-0.2-1.2-0.3-2.3-0.3-3.5c-0.2-4.3-0.5-10.8-6.7-12.9s-10.4,2.8-13.2,6.1c-0.8,0.9-1.6,1.8-2.5,2.7c0-0.7,0-1.4,0-2.1
	c0-2.3,0.1-7-4.4-8.5c-2.5-0.9-5.2,0.5-6.1,3c-0.6,1.6-0.2,3.4,0.9,4.7c0,0.2,0,0.5,0,0.7c0,2.8-0.2,9.4,6.5,11.8
	c6,2.2,10.2-2.7,13-5.9c0.8-1,1.7-1.9,2.6-2.8c0.2,1.2,0.3,2.5,0.3,3.8c0.2,4.2,0.5,10.6,6.5,12.7s10.3-2.8,13.2-6
	c0.6-0.7,1.6-1.8,2.3-2.5c0.2,1.1,0.3,2.5,0.3,3.5c0.3,4.2,0.7,10.6,6.5,12.6s10-2.7,12.9-5.8c0.8-1,1.7-1.9,2.7-2.8
	c0.2,1.2,0.3,2.4,0.3,3.5c0.2,4.3,0.5,10.7,6.5,12.8c0.3,0.1,0.6,0.2,1,0.3l-52.9,59.8c-12.5,14-11.3,35.5,2.7,48
	c6.2,5.6,14.3,8.6,22.7,8.6c0.7,0,1.4,0,2.1-0.1C112.2,276.6,120.7,272.5,126.7,265.7z M138.5,64.5c-5.9-15.6,1.3-34.7,6.4-45
	l43.2,101.7c-6.9-1.7-14.2-1.2-20.8,1.4l-7.9-8C152.3,98.2,143.5,77.8,138.5,64.5z M96.7,94.2l-8.9-24.5l23.4,9.5l47.5,48.2
	c-1.6,1.2-3,2.6-4.4,4.1l-9.1,10.2c-0.6-0.1-1.2-0.2-1.9-0.1L96.7,94.2z M134.9,146.7c-0.4,0.4-0.8,0.9-1.2,1.3
	c-0.8,1-1.7,1.9-2.7,2.8c-0.2-1.2-0.3-2.3-0.3-3.5c0-1.8-0.2-3.6-0.6-5.3L134.9,146.7z M102.6,267.5c-13.5,0.8-25.1-9.5-25.9-23
	c-0.4-6.4,1.8-12.8,6.1-17.6l78.7-88.9c9.1-10,24.5-10.8,34.6-1.7c9.8,8.9,10.8,24.1,2.1,34.1l-78.7,88.9
	C115.2,264.2,109.1,267.1,102.6,267.5z"/>
<path class="st1" d="M101.2,231.1c-6.6,0-11.9,5.3-11.9,11.9c0,6.6,5.3,11.9,11.9,11.9s11.9-5.3,11.9-11.9
	C113.2,236.4,107.8,231.1,101.2,231.1z M101.2,245.3c-1.3,0-2.3-1-2.3-2.3s1-2.3,2.3-2.3s2.3,1,2.3,2.3S102.5,245.3,101.2,245.3
	L101.2,245.3z"/>
<path class="st1" d="M184.7,139.4c-2.5-0.8-5.2,0.6-6.1,3.1c-0.8,2.5,0.6,5.2,3.1,6.1h0.1c0.6,0.2,6.1,2.1,4.4,10.2
	c-0.6,2.6,1.1,5.2,3.7,5.7s5.2-1.1,5.7-3.7C198.6,147.4,189.8,141,184.7,139.4z"/>
<path class="st1" d="M175.9,170l-32.6,35.5c-1.8,2-1.6,5,0.4,6.8c1.9,1.7,4.9,1.6,6.7-0.3l32.6-35.5c1.8-1.9,1.7-5-0.2-6.8
	s-5-1.7-6.8,0.2C176,170,175.9,170,175.9,170L175.9,170z"/>
<path class="st2" d="M77.2,181.9c-1.9,1.9-1.9,4.9-0.1,6.8c1.8,1.8,4.6,1.9,6.5,0.3l14.8-13.4c2-1.8,2.1-4.8,0.3-6.8
	c-0.6-0.7-1.4-1.1-2.2-1.4l-15.6-4.6c-2.5-0.8-5.2,0.5-6.1,3c-0.8,2.5,0.5,5.2,3,6.1c0.1,0,0.2,0.1,0.4,0.1l1.6,0.5l5.8,1.7l-5.5,5
	L77.2,181.9z"/>
<path class="st2" d="M48.1,233.6L48.1,233.6c2.6,0,4.8-2.1,4.8-4.8c-0.1-7.5,3.5-14.6,9.7-18.9c2.3-1.4,3-4.3,1.7-6.6
	c-1.4-2.3-4.3-3-6.5-1.7c-9.1,6-14.6,16.2-14.4,27.1C43.3,231.5,45.4,233.6,48.1,233.6z"/>
<path class="st2" d="M67.7,282.1l-8.1-7.8C61.9,277.3,64.6,279.9,67.7,282.1z"/>
<path class="st2" d="M81.1,289.1c-4.8-1.6-9.4-3.9-13.4-6.9c-3-2.2-5.7-4.9-8.1-7.8c-3-3.7-5.3-7.9-6.8-12.4
	c-0.7-2.6-3.4-4.1-5.9-3.3c-2.6,0.7-4.1,3.4-3.3,5.9c0.3,1,7,24.5,34.6,33.6c2.6,0.7,5.2-0.8,5.9-3.3
	C84.7,292.5,83.4,289.9,81.1,289.1L81.1,289.1z"/>
<path class="st2" d="M135.3,286.8c-8.3,8.3-24.4,7.4-24.7,7.4c-2.7-0.1-4.9,1.9-5,4.6c-0.1,2.6,1.8,4.8,4.4,5c0.2,0,0.9,0,2.1,0
	c5.5,0,20.6-0.9,30-10.3c1.9-1.8,2-4.9,0.2-6.8s-4.9-2-6.8-0.2C135.4,286.7,135.4,286.7,135.3,286.8L135.3,286.8z"/>
<path class="st2" d="M183.5,235.9l-12.2,13.7c-1.8,2-1.6,5,0.4,6.8c2,1.8,5,1.6,6.8-0.4l0,0l12.2-13.7c1.8-2,1.6-5-0.4-6.8
	S185.2,233.9,183.5,235.9z"/>
<path class="st2" d="M223.8,195.4c-2-1.8-5-1.6-6.8,0.4l-7.2,8.1c-1.8,2-1.6,5,0.4,6.8s5,1.6,6.8-0.4l0,0l7.2-8.1
	C226,200.2,225.8,197.1,223.8,195.4L223.8,195.4z"/>
<path class="st2" d="M270.2,141.8h-36.3c-2.7,0-4.8,2.2-4.8,4.8c0,0.6,0.1,1.1,0.3,1.7c1.3,3.9,2.2,7.9,2.6,12
	c0.5,5.5,0.1,13.1-4.6,17.8c-1.9,1.8-2,4.9-0.2,6.8s4.9,2,6.8,0.2c0.1-0.1,0.1-0.1,0.2-0.2c3.3-3.4,5.6-7.6,6.6-12.2
	c1.8-7.7,0.8-15.8-0.5-21.2h30c2.7,0,4.8-2.2,4.8-4.8C275,144,272.9,141.8,270.2,141.8L270.2,141.8z"/>
<circle class="st0" cx="200.6" cy="222.6" r="4.9"/>
</svg>
