<svg xmlns="http://www.w3.org/2000/svg" viewBox="0 0 1920 324.84"><defs><style>.cls-1{fill:none;}.cls-2{fill:#fff;}.cls-3{fill:#fe4a49;}</style></defs><title>new-footer</title><g id="Pipeline"><path class="cls-1" d="M216.91,196.74l84.6-.47h4.42l8.55,0a7.16,7.16,0,0,0,7.12-7.2l-.05-9.43a7.16,7.16,0,0,0-7.16-7.12h0l-110.53.61a7.17,7.17,0,0,0-7.12,7.2l.05,9.43a7.17,7.17,0,0,0,7.16,7.12h0l8.53,0h4.42Zm82.55-16a3.91,3.91,0,1,1-3.89,3.93A3.91,3.91,0,0,1,299.46,180.72Zm-28,0a3.91,3.91,0,1,1-3.89,3.93A3.91,3.91,0,0,1,271.42,180.72Zm-28,0a3.91,3.91,0,1,1-3.89,3.93A3.91,3.91,0,0,1,243.38,180.72Zm-31.93,3.93a3.91,3.91,0,1,1,3.93,3.89A3.91,3.91,0,0,1,211.46,184.65Z"/><path class="cls-1" d="M217.19,247.54l84.6-.29-.26-46.56-84.6.47Zm72.21-40.47a2.21,2.21,0,1,1,4.42,0v31.31a2.21,2.21,0,0,1-4.42,0Z"/><path class="cls-1" d="M302,279.85l-88.54.3a37.33,37.33,0,0,1-7.56,11.53c-7.08,7.25-17,10.89-29.42,10.8l-8.72,0L168,383.1c37.88-.18,70-.3,87.58-.3,4.44,0,7.95,0,10.39,0h.39c11,0,19.67-3.18,25.81-9.45,10.5-10.72,10.16-27.13,10.15-27.34Zm-8.16,68.56c0,.26-.59,25.76-28.24,25.76H187.5a2.21,2.21,0,1,1,0-4.42h78.08c23.22,0,23.8-20.52,23.82-21.36V292.89a2.21,2.21,0,1,1,4.42,0Z"/><path class="cls-1" d="M322,258.76a7.16,7.16,0,0,0-7.16-7.14h0l-8.58,0h-4.42l-84.6.29H212.8l-8.5,0a7.16,7.16,0,0,0-7.14,7.19l0,9.43a7.11,7.11,0,0,0,2.11,5.06,7.26,7.26,0,0,0,5.07,2.08l6,0h4.69l86.89-.3h4.42l8.53,0a7.17,7.17,0,0,0,7.14-7.19l0-9.43ZM216.88,267.3a3.9,3.9,0,0,1-1.5.3,4,4,0,0,1-.78-.08,3.9,3.9,0,0,1,.45-7.71c.1,0,.2,0,.3,0a3.91,3.91,0,0,1,1.52,7.51Zm26.54.3a3.91,3.91,0,1,1,3.9-3.92A3.91,3.91,0,0,1,243.42,267.6Zm28,0a3.91,3.91,0,1,1,3.9-3.92A3.91,3.91,0,0,1,271.46,267.6Zm30.45-.86a3.87,3.87,0,1,1,1.48-3.06A3.87,3.87,0,0,1,301.91,266.74Z"/><path class="cls-1" d="M1622.28,196.26h2.21l84.6.47h4.42l8.53,0h0a7.17,7.17,0,0,0,7.16-7.12l.05-9.43a7.17,7.17,0,0,0-7.12-7.2l-110.53-.61h0a7.16,7.16,0,0,0-7.16,7.12l-.05,9.43a7.16,7.16,0,0,0,7.12,7.2l8.55,0Zm88.38-15.54a3.91,3.91,0,1,1-3.93,3.89A3.91,3.91,0,0,1,1710.66,180.72Zm-28,0a3.91,3.91,0,1,1-3.93,3.89A3.91,3.91,0,0,1,1682.62,180.72Zm-28,0a3.91,3.91,0,1,1-3.93,3.89A3.91,3.91,0,0,1,1654.59,180.72Zm-28,0a3.91,3.91,0,1,1-3.93,3.89A3.91,3.91,0,0,1,1626.55,180.72Z"/><path class="cls-1" d="M258.61,150.1a36.6,36.6,0,0,0,15.81-69.62v24.57a2.21,2.21,0,1,1-4.42,0V80.14a2.19,2.19,0,0,1,.42-1.28A36.34,36.34,0,0,0,260.81,77c0,.05,0,.1,0,.15v33.24a2.21,2.21,0,1,1-4.42,0V77.11c0-.05,0-.1,0-.15a36.35,36.35,0,0,0-9.19,1.75v22.06a2.21,2.21,0,1,1-4.42,0V80.48a36.6,36.6,0,0,0,15.81,69.62Z"/><path class="cls-1" d="M1634.56,109.5h0l14.43-.08.05-30.38a2.21,2.21,0,0,1,2.21-2.21h0a2.21,2.21,0,0,1,2.21,2.21l-.05,30.35,11.71-.06.16-30.13a2.21,2.21,0,0,1,2.21-2.2h0a2.21,2.21,0,0,1,2.2,2.22l-.16,30.08,11.8-.06.07-30.38a2.21,2.21,0,0,1,2.21-2.2h0a2.21,2.21,0,0,1,2.2,2.21l-.07,30.35,14.64-.08a1.47,1.47,0,0,0,1.46-1.47l-.34-65.84a1.45,1.45,0,0,0-.44-1,1.43,1.43,0,0,0-1-.43l-65.84.34a1.49,1.49,0,0,0-1.46,1.47l.34,65.84A1.49,1.49,0,0,0,1634.56,109.5Z"/><path class="cls-1" d="M163.61,385.33v-2.21l-.27-80.68V298l0-10.18a7.16,7.16,0,0,0-7.16-7.14h0l-9.43,0h0a7.16,7.16,0,0,0-7.14,7.19l0,10.14v4.42l.28,80.75v4.42l0,10.79a7.17,7.17,0,0,0,7.16,7.14h0l9.43,0a7.17,7.17,0,0,0,7.14-7.19l0-10.82Zm-16-82.86a3.9,3.9,0,1,1-.08.81A3.89,3.89,0,0,1,147.63,302.47Zm3.9,23.42a3.91,3.91,0,1,1-3.9,3.92A3.91,3.91,0,0,1,151.53,325.89Zm.09,26.54a3.91,3.91,0,1,1-3.9,3.92A3.91,3.91,0,0,1,151.62,352.42Zm4,30.74a3.89,3.89,0,0,1-7.76,0c0-.11,0-.21,0-.32a3.91,3.91,0,1,1,7.82,0C155.64,383,155.61,383.06,155.61,383.16Z"/><path class="cls-1" d="M1624.21,247.25l84.6.29.26-46.38-84.6-.47Zm8-40.18a2.21,2.21,0,1,1,4.42,0v31.31a2.21,2.21,0,1,1-4.42,0Z"/><path class="cls-1" d="M-89.51,303.75l-1.4,80.83c17.43-.11,131.14-.83,226.34-1.32l-.28-80.76C62.4,302.73-70.91,303.63-89.51,303.75Z"/><path class="cls-1" d="M1779.35,280.73h0l-9.43,0h0a7.16,7.16,0,0,0-7.16,7.14l0,10.18v4.42l-.27,80.68v4.42l0,10.82a7.17,7.17,0,0,0,7.14,7.19l9.43,0h0a7.17,7.17,0,0,0,7.16-7.14l0-10.79v-4.42l.28-80.75v-4.42l0-10.14a7.16,7.16,0,0,0-7.14-7.19Zm-1.19,102.46a3.89,3.89,0,0,1-7.76,0c0-.1,0-.2,0-.3a3.91,3.91,0,0,1,7.82,0C1778.19,383,1778.17,383.09,1778.16,383.2Zm-3.8-23a3.91,3.91,0,1,1,3.92-3.9A3.91,3.91,0,0,1,1774.36,360.24Zm.09-26.53a3.91,3.91,0,1,1,3.92-3.9A3.91,3.91,0,0,1,1774.45,333.71Zm.09-26.54a3.91,3.91,0,0,1,0-7.82,4,4,0,0,1,3.81,3.11,3.9,3.9,0,0,1-3.84,4.71Z"/><path class="cls-1" d="M1790.85,302.5l-.28,80.76c95.19.49,208.91,1.21,226.34,1.32l-1.4-80.83C1996.92,303.63,1863.6,302.73,1790.85,302.5Z"/><path class="cls-1" d="M1720.13,291.67a37.32,37.32,0,0,1-7.56-11.53l-88.54-.3-.37,66.19c0,.22-.34,16.62,10.15,27.34,6.14,6.27,14.82,9.45,25.81,9.45h.39c2.44,0,6,0,10.39,0,17.57,0,49.69.12,87.58.3l.27-80.65-8.72,0C1737.1,302.56,1727.21,298.93,1720.13,291.67Zm18.38,82.49h-78.08c-27.65,0-28.23-25.5-28.24-25.76V292.89a2.21,2.21,0,1,1,4.42,0v55.49c0,.84.59,21.36,23.82,21.36h78.08a2.21,2.21,0,0,1,0,4.42Z"/><path class="cls-1" d="M1710.94,275.72h4.69l6,0a7.26,7.26,0,0,0,5.07-2.08,7.11,7.11,0,0,0,2.11-5.06l0-9.43a7.16,7.16,0,0,0-7.14-7.19l-8.5,0h-4.42l-84.6-.29h-4.42l-8.58,0h0a7.16,7.16,0,0,0-7.16,7.14h0l0,9.43a7.17,7.17,0,0,0,7.14,7.19l8.53,0h4.42Zm-2.2-15.43a3.88,3.88,0,0,1,1.91-.51c.1,0,.2,0,.3,0a3.9,3.9,0,0,1,.45,7.71,4,4,0,0,1-.78.08,3.9,3.9,0,0,1-1.88-7.31Zm-26.13-.51a3.91,3.91,0,1,1-3.92,3.9A3.91,3.91,0,0,1,1682.62,259.78Zm-28,0a3.91,3.91,0,1,1-3.92,3.9A3.91,3.91,0,0,1,1654.58,259.78Zm-32,3.9a4,4,0,1,1,1.48,3.06A3.89,3.89,0,0,1,1622.62,263.68Z"/><path class="cls-2" d="M258.61,154.52a41,41,0,1,0-41-41A41.07,41.07,0,0,0,258.61,154.52Zm-15.81-74v20.29a2.21,2.21,0,1,0,4.42,0V78.71A36.35,36.35,0,0,1,256.42,77c0,.05,0,.1,0,.15v33.24a2.21,2.21,0,1,0,4.42,0V77.11c0-.05,0-.1,0-.15a36.34,36.34,0,0,1,9.61,1.89,2.19,2.19,0,0,0-.42,1.28v24.92a2.21,2.21,0,1,0,4.42,0V80.48a36.61,36.61,0,1,1-31.61,0Z"/><path class="cls-2" d="M240.11,62.45a2.21,2.21,0,0,0,2.21-2.21V35.51a2.21,2.21,0,1,0-4.42,0V60.24A2.21,2.21,0,0,0,240.11,62.45Z"/><path class="cls-2" d="M259.3,62.45a2.21,2.21,0,0,0,2.21-2.21V43.66a2.21,2.21,0,0,0-4.42,0V60.24A2.21,2.21,0,0,0,259.3,62.45Z"/><path class="cls-2" d="M278.48,62.45a2.21,2.21,0,0,0,2.21-2.21V35.51a2.21,2.21,0,0,0-4.42,0V60.24A2.21,2.21,0,0,0,278.48,62.45Z"/><path class="cls-2" d="M1634.56,113.92h0l65.84-.34a5.9,5.9,0,0,0,5.86-5.92l-.34-65.84a5.9,5.9,0,0,0-5.88-5.86h0l-65.84.34a5.89,5.89,0,0,0-5.85,5.92l.34,65.84A5.89,5.89,0,0,0,1634.56,113.92Zm-.35-73.19,65.84-.34a1.43,1.43,0,0,1,1,.43,1.45,1.45,0,0,1,.44,1l.34,65.84a1.47,1.47,0,0,1-1.46,1.47l-14.64.08.07-30.35a2.21,2.21,0,0,0-2.2-2.21h0a2.21,2.21,0,0,0-2.21,2.2l-.07,30.38-11.8.06.16-30.08a2.21,2.21,0,0,0-2.2-2.22h0a2.21,2.21,0,0,0-2.21,2.2l-.16,30.13-11.71.06.05-30.35a2.21,2.21,0,0,0-2.21-2.21h0a2.21,2.21,0,0,0-2.21,2.21l-.05,30.38-14.43.08h0a1.49,1.49,0,0,1-1.47-1.46l-.34-65.84A1.49,1.49,0,0,1,1634.21,40.73Z"/><path class="cls-2" d="M1646.21,124.92v24.73a2.21,2.21,0,1,0,4.42,0V124.92a2.21,2.21,0,1,0-4.42,0Z"/><path class="cls-2" d="M1665.4,124.92V141.5a2.21,2.21,0,1,0,4.42,0V124.92a2.21,2.21,0,1,0-4.42,0Z"/><path class="cls-2" d="M1684.58,124.92v24.73a2.21,2.21,0,1,0,4.42,0V124.92a2.21,2.21,0,1,0-4.42,0Z"/><path class="cls-2" d="M2019.9,301.52a2.21,2.21,0,0,0-2.19-2.17c-1.84,0-149-1-226.84-1.27l0-10.14a11.58,11.58,0,0,0-11.54-11.62l-9.43,0h0a11.58,11.58,0,0,0-11.58,11.54l0,10.2-8.76,0c-11.18.06-20-3.1-26.2-9.44a31.92,31.92,0,0,1-5.86-8.45h4.2a11.58,11.58,0,0,0,11.58-11.54l0-9.43a11.58,11.58,0,0,0-11.54-11.62l-8.49,0,.26-46.37,8.53,0h.07a11.6,11.6,0,0,0,11.58-11.52l.05-9.43a11.6,11.6,0,0,0-11.52-11.65L1611.68,168A11.58,11.58,0,0,0,1600,179.54L1600,189a11.58,11.58,0,0,0,11.52,11.65l8.55,0-.26,46.57-8.59,0h0a11.58,11.58,0,0,0-11.58,11.54l0,9.43a11.6,11.6,0,0,0,11.54,11.62l8.52,0-.37,66.12c0,.75-.42,18.39,11.39,30.49,7,7.17,16.75,10.8,29,10.8h.42c12.1-.08,50.49.06,97.92.28l0,10.83A11.6,11.6,0,0,0,1769.48,410l9.43,0h0a11.6,11.6,0,0,0,11.58-11.54l0-10.78c102.54.53,226.6,1.32,228.59,1.33h0a2.21,2.21,0,0,0,2.21-2.25ZM1611.52,196.2a7.16,7.16,0,0,1-7.12-7.2l.05-9.43a7.16,7.16,0,0,1,7.16-7.12h0l110.53.61a7.17,7.17,0,0,1,7.12,7.2l-.05,9.43a7.17,7.17,0,0,1-7.16,7.12h0l-8.53,0h-4.42l-84.6-.47h-4.42Zm97.55,5-.26,46.38-84.6-.29.26-46.56Zm-89.44,74.25-8.53,0a7.17,7.17,0,0,1-7.14-7.19l0-9.43h0a7.16,7.16,0,0,1,7.16-7.14h0l8.58,0h4.42l84.6.29h4.42l8.5,0a7.16,7.16,0,0,1,7.14,7.19l0,9.43a7.11,7.11,0,0,1-2.11,5.06,7.26,7.26,0,0,1-5.07,2.08l-6,0h-4.69l-86.89-.3h-4.42ZM1758,383.1c-37.88-.18-70-.3-87.58-.3-4.44,0-7.95,0-10.39,0h-.39c-11,0-19.67-3.18-25.81-9.45-10.5-10.72-10.16-27.13-10.15-27.34l.37-66.19,88.54.3a37.32,37.32,0,0,0,7.56,11.53c7.08,7.25,17,10.89,29.42,10.8l8.72,0Zm28.46-85v4.42l-.28,80.75v4.42l0,10.79a7.17,7.17,0,0,1-7.16,7.14h0l-9.43,0a7.17,7.17,0,0,1-7.14-7.19l0-10.82v-4.42l.27-80.68V298l0-10.18a7.16,7.16,0,0,1,7.16-7.14h0l9.43,0h0a7.16,7.16,0,0,1,7.14,7.19Zm4.13,85.19.28-80.76c72.75.23,206.07,1.13,224.67,1.25l1.4,80.83C1999.49,384.47,1885.77,383.75,1790.58,383.26Z"/><path class="cls-2" d="M1634.4,240.59a2.21,2.21,0,0,0,2.21-2.21V207.07a2.21,2.21,0,1,0-4.42,0v31.31A2.21,2.21,0,0,0,1634.4,240.59Z"/><path class="cls-2" d="M1738.51,369.75h-78.08c-23.22,0-23.8-20.52-23.82-21.36V292.89a2.21,2.21,0,1,0-4.42,0v55.52c0,.26.59,25.76,28.24,25.76h78.08a2.21,2.21,0,0,0,0-4.42Z"/><circle class="cls-3" cx="1626.53" cy="184.63" r="3.91" transform="translate(1432.87 1810.11) rotate(-89.68)"/><circle class="cls-3" cx="1654.57" cy="184.63" r="3.91" transform="translate(1460.76 1838.14) rotate(-89.68)"/><circle class="cls-3" cx="1682.6" cy="184.63" r="3.91" transform="translate(1488.64 1866.18) rotate(-89.68)"/><circle class="cls-3" cx="1710.64" cy="184.63" r="3.91" transform="translate(1516.52 1894.22) rotate(-89.68)"/><path class="cls-3" d="M1709.13,267.3a3.9,3.9,0,0,0,1.5.3,4,4,0,0,0,.78-.08,3.9,3.9,0,0,0-.45-7.71c-.1,0-.2,0-.3,0a3.91,3.91,0,0,0-1.52,7.51Z"/><circle class="cls-3" cx="1682.6" cy="263.69" r="3.91" transform="translate(1413.19 1945.39) rotate(-89.81)"/><circle class="cls-3" cx="1654.56" cy="263.69" r="3.91" transform="translate(1385.23 1917.35) rotate(-89.8)"/><path class="cls-3" d="M1626.51,267.6a4,4,0,1,0-2.41-.86A3.91,3.91,0,0,0,1626.51,267.6Z"/><path class="cls-3" d="M1777,300.25a3.92,3.92,0,0,0-6.29,2.2,3.92,3.92,0,1,0,6.29-2.2Z"/><path class="cls-2" d="M291.61,240.59a2.21,2.21,0,0,0,2.21-2.21V207.07a2.21,2.21,0,1,0-4.42,0v31.31A2.21,2.21,0,0,0,291.61,240.59Z"/><path class="cls-2" d="M291.61,290.68a2.21,2.21,0,0,0-2.21,2.21v55.49c0,.84-.59,21.36-23.82,21.36H187.5a2.21,2.21,0,1,0,0,4.42h78.08c27.65,0,28.23-25.5,28.24-25.76V292.89A2.21,2.21,0,0,0,291.61,290.68Z"/><circle class="cls-3" cx="299.48" cy="184.63" r="3.91" transform="translate(-1.02 1.66) rotate(-0.32)"/><circle class="cls-3" cx="271.44" cy="184.63" r="3.91" transform="translate(-1.02 1.51) rotate(-0.32)"/><circle class="cls-3" cx="243.41" cy="184.63" r="3.91" transform="translate(-1.02 1.36) rotate(-0.32)"/><circle class="cls-3" cx="215.37" cy="184.63" r="3.91" transform="translate(-1.01 1.19) rotate(-0.31)"/><path class="cls-2" d="M323,250.57a11.5,11.5,0,0,0-8.16-3.36h0l-8.59,0L306,200.67l8.55,0A11.58,11.58,0,0,0,326,189l-.05-9.43A11.58,11.58,0,0,0,314.33,168l-110.53.61a11.6,11.6,0,0,0-11.52,11.65l.05,9.43a11.6,11.6,0,0,0,11.58,11.52H204l8.53,0,.26,46.37-8.49,0a11.58,11.58,0,0,0-11.54,11.62l0,9.43a11.58,11.58,0,0,0,11.58,11.54h4.2a31.92,31.92,0,0,1-5.86,8.45c-6.21,6.34-15,9.51-26.2,9.44l-8.76,0,0-10.2a11.58,11.58,0,0,0-11.58-11.54h0l-9.43,0a11.58,11.58,0,0,0-11.54,11.62l0,10.14c-77.86.25-225,1.26-226.84,1.27a2.21,2.21,0,0,0-2.19,2.17l-1.47,85.25a2.21,2.21,0,0,0,.64,1.59,2.21,2.21,0,0,0,1.57.66h0c2,0,126-.8,228.59-1.33l0,10.78A11.6,11.6,0,0,0,147.06,410h0l9.43,0a11.6,11.6,0,0,0,11.54-11.62l0-10.83c47.43-.23,85.82-.36,97.92-.28h.42c12.24,0,22-3.63,29-10.8,11.81-12.09,11.41-29.74,11.39-30.49l-.37-66.12,8.52,0a11.6,11.6,0,0,0,11.54-11.62l0-9.43A11.51,11.51,0,0,0,323,250.57Zm-413.92,134,1.4-80.83c18.6-.13,151.92-1,224.67-1.25l.28,80.76C40.24,383.75-73.48,384.47-90.91,384.58Zm247.43,21-9.43,0h0a7.17,7.17,0,0,1-7.16-7.14l0-10.79v-4.42l-.28-80.75v-4.42l0-10.14a7.16,7.16,0,0,1,7.14-7.19h0l9.43,0h0a7.16,7.16,0,0,1,7.16,7.14l0,10.18v4.42l.27,80.68v4.42l0,10.82A7.17,7.17,0,0,1,156.52,405.55Zm56-208.79-8.53,0h0a7.17,7.17,0,0,1-7.16-7.12l-.05-9.43a7.17,7.17,0,0,1,7.12-7.2l110.53-.61h0a7.16,7.16,0,0,1,7.16,7.12l.05,9.43a7.16,7.16,0,0,1-7.12,7.2l-8.55,0h-4.42l-84.6.47h-4.42Zm89.31,50.48-84.6.29-.26-46.38,84.6-.47Zm-9.61,126.13c-6.14,6.27-14.82,9.45-25.81,9.45H266c-2.44,0-6,0-10.39,0-17.57,0-49.69.12-87.58.3l-.27-80.65,8.72,0c12.44.09,22.34-3.55,29.42-10.8a37.33,37.33,0,0,0,7.56-11.53l88.54-.3.37,66.19C302.35,346.25,302.69,362.65,292.19,373.38Zm22.71-98-8.53,0H302l-86.89.3h-4.69l-6,0a7.26,7.26,0,0,1-5.07-2.08,7.11,7.11,0,0,1-2.11-5.06l0-9.43a7.16,7.16,0,0,1,7.14-7.19l8.5,0h4.42l84.6-.29h4.42l8.58,0h0a7.16,7.16,0,0,1,7.16,7.14h0l0,9.43A7.17,7.17,0,0,1,314.9,275.38Z"/><path class="cls-3" d="M217.26,260.29a3.87,3.87,0,0,0-1.91-.51c-.1,0-.2,0-.3,0a3.9,3.9,0,0,0-.45,7.71,4,4,0,0,0,.78.08,3.9,3.9,0,0,0,1.88-7.31Z"/><circle class="cls-3" cx="243.41" cy="263.69" r="3.91" transform="translate(-0.9 0.83) rotate(-0.19)"/><circle class="cls-3" cx="271.44" cy="263.69" r="3.91" transform="translate(-0.9 0.93) rotate(-0.19)"/><path class="cls-3" d="M301.87,260.62a3.87,3.87,0,1,0,1.52,3.06A3.87,3.87,0,0,0,301.87,260.62Z"/><path class="cls-3" d="M151.47,307.17a3.91,3.91,0,0,0,0-7.82,4,4,0,0,0-3.81,3.11,3.9,3.9,0,0,0,3.84,4.71Z"/></g></svg>