<svg xmlns="http://www.w3.org/2000/svg" xmlns:xlink="http://www.w3.org/1999/xlink" viewBox="0 0 1920 324.84"><defs><style>.cls-1{fill:none;}.cls-2{clip-path:url(#clip-path);}.cls-3{fill:#87daf4;}.cls-4{fill:#fff;}</style><clipPath id="clip-path"><rect class="cls-1" width="1920" height="324.84"/></clipPath></defs><title>footer v3</title><g id="Pipeline"><g class="cls-2"><polygon class="cls-3" points="44.74 -11.35 38.8 -11.35 38.8 5.85 44.74 5.87 44.74 -11.35"/><path class="cls-3" d="M1478.38,162.43a63.23,63.23,0,1,0-63.23,63.09A63.23,63.23,0,0,0,1478.38,162.43Zm-63.23,57.15a57.15,57.15,0,1,1,52-81.18H1434.9a3,3,0,1,0,0,5.94h34.58a56.65,56.65,0,0,1,2.89,15.22,3,3,0,0,0-.74-.1H1420a3,3,0,1,0,0,5.94h51.6a3,3,0,0,0,.74-.1,56.64,56.64,0,0,1-3.22,16.22,3,3,0,0,0-2.2-1h-38.69a3,3,0,1,0,0,5.94h38.69l.18,0A57.36,57.36,0,0,1,1415.15,219.58Z"/><path class="cls-3" d="M1549.57-25.57V-96.75h157.54V-32.8h5.94V-96.75h89.26v47.43a3,3,0,0,0,3,3,3,3,0,0,0,3-3V-96.75h10v-5.94h-10v-6.54a3,3,0,0,0-3-3,3,3,0,0,0-3,3v6.54h-89.26v-103a3,3,0,0,0-.06-.56h40.85v-5.94H1470.42v-122h283.42v-5.94H1470.42v-7.37A15.59,15.59,0,0,0,1454.85-363h-12.68a15.59,15.59,0,0,0-15.57,15.57v148.57a15.59,15.59,0,0,0,15.57,15.57h12.68a15.59,15.59,0,0,0,15.57-15.57v-7.37h236.75a3,3,0,0,0-.06.56v103H1549.47A15.59,15.59,0,0,0,1534-116.52h-7a15.59,15.59,0,0,0-15.57,15.57v79.58A15.59,15.59,0,0,0,1527-5.8h7a15.59,15.59,0,0,0,15.47-13.83h73.85V18.59c0,4.15-.92,16-5.71,20.8a6.63,6.63,0,0,1-4.91,2.09,3,3,0,1,0,0,5.94,12.45,12.45,0,0,0,9.14-3.86c7.52-7.6,7.43-24.33,7.43-25V-19.63h39v-5.94Zm-85.1-173.33a9.64,9.64,0,0,1-9.63,9.63h-12.68a9.64,9.64,0,0,1-9.63-9.63V-347.47a9.64,9.64,0,0,1,9.63-9.63h12.68a9.64,9.64,0,0,1,9.63,9.63Zm79.16,177.53a9.64,9.64,0,0,1-9.63,9.63h-7a9.64,9.64,0,0,1-9.63-9.63v-79.58a9.64,9.64,0,0,1,9.63-9.63h7a9.64,9.64,0,0,1,9.63,9.63Z"/><path class="cls-3" d="M1543.22,99.61l111.13-.1A57.93,57.93,0,0,0,1711.71,54h-6.09a52,52,0,0,1-51.22,39.51l-111.18.1,0-8.66a15.57,15.57,0,0,0-15.57-15.54h0l-12.67,0a15.57,15.57,0,0,0-15.54,15.6l.32,148.57a15.59,15.59,0,0,0,15.57,15.54h0l12.68,0a15.57,15.57,0,0,0,15.54-15.6v-2.35l73.22.06v-5.94l-73.23-.06Zm-8.46,140.8a9.57,9.57,0,0,1-6.8,2.84l-12.67,0h0a9.64,9.64,0,0,1-9.64-9.61l-.32-148.57a9.63,9.63,0,0,1,9.61-9.65l12.68,0h0a9.63,9.63,0,0,1,9.63,9.61l.32,148.57A9.56,9.56,0,0,1,1534.76,240.41Z"/><path class="cls-4" d="M1985.57-29.64a22.34,22.34,0,0,0-12.39-3.73h0l-148.89.32v.14a3,3,0,0,1-3,3,3,3,0,0,1-3-3V-33l-105.25.23h-5.94l-9,0a14.83,14.83,0,0,0-4.38-10.13,14.85,14.85,0,0,0-10.55-4.36h0a15,15,0,0,0-14.92,15v12.66l.16,73.32a15,15,0,0,0,15,14.92h0a15,15,0,0,0,14.9-14.54l7.35,0h6.09l209-.45,52.61-.11A22.47,22.47,0,0,0,1995.74,31l-.09-41.92a22.37,22.37,0,0,0-5.58-14.75A22.64,22.64,0,0,0,1985.57-29.64ZM1683.35,62.67h0a9,9,0,0,1-9-9l-.18-86a9,9,0,0,1,9-9h0a9,9,0,0,1,6.36,2.63,9,9,0,0,1,2.65,6.37l.18,86A9,9,0,0,1,1683.35,62.67ZM1989.8,31a16.53,16.53,0,0,1-16.49,16.56l-275,.59-.16-75,275-.59h0a16.42,16.42,0,0,1,11.66,4.82,16.41,16.41,0,0,1,4.87,11.68Z"/><path class="cls-4" d="M1997.87,664.23a3,3,0,0,0-3-2.92l-74.21-.48-10.7-.07c-.07-41.91-.22-142.34-.25-233.85l11,0h3.48a15.59,15.59,0,0,0,15.57-15.54l0-12.68a15.59,15.59,0,0,0-15.54-15.6h-3.54l-11,0c0-61.69.08-113.31.29-130.64.21-16.72-4.6-30.05-14.3-39.62-16.16-16-39.9-15.56-40.82-15.53h-89l0-12.44a15.57,15.57,0,0,0-15.54-15.6l-12.68,0h0a15.57,15.57,0,0,0-15.57,15.54l0,12.54h-61.61V184.81A15.59,15.59,0,0,0,1645,169.24h-12.68a15.59,15.59,0,0,0-15.57,15.57V333.38A15.59,15.59,0,0,0,1632.29,349H1645a15.59,15.59,0,0,0,15.57-15.57V322.91h61.34l0,10.43a15.59,15.59,0,0,0,15.54,15.6l12.68,0h0a15.57,15.57,0,0,0,15.57-15.54v-4.61a43.07,43.07,0,0,1,11.28,7.91c8.5,8.39,12.72,20.28,12.53,35.32,0,3-.07,6.6-.1,10.79l-13.72,0h0a15.59,15.59,0,0,0-15.57,15.54l0,12.68h0a15.59,15.59,0,0,0,15.54,15.6l13.65,0c-.12,71.79.1,184.51.2,233.41-36.15-.19-71.19-.36-99.44-.45l0-13.64a15.57,15.57,0,0,0-15.52-15.62l-12.68,0h-.05a15.59,15.59,0,0,0-15.57,15.52l0,13.71c-4.71,0-8.68,0-11.78,0h-.53c-14.77,0-26.45-4.27-34.69-12.7a42.93,42.93,0,0,1-7.88-11.36l5.6,0h.05A15.57,15.57,0,0,0,1612.53,620l0-12.68a15.57,15.57,0,0,0-15.52-15.62l-11.42,0,.35-62.33,11.46.06h.09a15.59,15.59,0,0,0,15.57-15.48l.07-12.68a15.57,15.57,0,0,0-15.48-15.66l-148.57-.82a15.57,15.57,0,0,0-15.66,15.48l-.07,12.68a15.57,15.57,0,0,0,15.48,15.66l11.5.06-.35,62.6-11.55,0h-.05a15.57,15.57,0,0,0-15.57,15.52l0,12.68A15.59,15.59,0,0,0,1448.33,635l11.45,0-.42,75.2-.08,13.68c0,1-.57,24.73,15.31,41,9.41,9.64,22.52,14.52,39,14.52h.57c16.27-.11,67.87.07,131.63.38l0,14.56A15.57,15.57,0,0,0,1661.24,810l12.68,0h.05a15.57,15.57,0,0,0,15.57-15.52l0-14.49c137.84.71,304.59,1.77,307.27,1.79h0a3,3,0,0,0,3-3ZM1654.6,333.38A9.64,9.64,0,0,1,1645,343h-12.68a9.64,9.64,0,0,1-9.63-9.63V184.81a9.64,9.64,0,0,1,9.63-9.63H1645a9.64,9.64,0,0,1,9.63,9.63ZM1721.89,317h-61.35V203.24h61.59Zm37.84,16.45a9.63,9.63,0,0,1-9.63,9.61h0l-12.68,0a9.64,9.64,0,0,1-9.61-9.65l.32-148.57a9.63,9.63,0,0,1,9.63-9.61h0l12.68,0a9.64,9.64,0,0,1,9.61,9.65ZM1448.91,522.66a9.63,9.63,0,0,1-9.57-9.68l.07-12.68a9.63,9.63,0,0,1,9.63-9.58h.06l148.57.82a9.63,9.63,0,0,1,9.58,9.68l-.07,12.68a9.64,9.64,0,0,1-9.63,9.57h-.05ZM1580,529.33l-.35,62.34L1466,591.28l.35-62.58ZM1448.36,629.1a9.64,9.64,0,0,1-9.6-9.66l0-12.68h0a9.63,9.63,0,0,1,9.63-9.6h0l148.57.51a9.64,9.64,0,0,1,9.6,9.66l0,12.68a9.63,9.63,0,0,1-9.63,9.6h0Zm197.44,144.8c-50.92-.24-94.1-.41-117.72-.41-6,0-10.68,0-14,0h-.53c-14.77,0-26.45-4.27-34.69-12.7-14.11-14.41-13.66-36.47-13.65-36.76l.49-89,119,.41A50.19,50.19,0,0,0,1594.9,651c9.41,9.64,22.52,14.52,39,14.52h.57c3.08,0,7,0,11.72,0Zm37.8,20.63a9.64,9.64,0,0,1-9.63,9.6h0l-12.68,0a9.63,9.63,0,0,1-9.59-9.66l.51-148.57a9.64,9.64,0,0,1,9.63-9.6h0l12.68,0h0a9.63,9.63,0,0,1,9.59,9.66Zm97.53-462a50.23,50.23,0,0,0-15.44-10.25l.25-119h89c.22,0,22.18-.39,36.57,13.82,8.5,8.4,12.72,20.28,12.53,35.32-.21,17.34-.29,69-.29,130.7l-108.47-.23c0-4.16.06-7.76.1-10.72C1795.63,355.41,1790.82,342.08,1781.13,332.5Zm-5.54,88.18A9.64,9.64,0,0,1,1766,411l0-12.67a9.64,9.64,0,0,1,9.63-9.61h0l148.57.32a9.64,9.64,0,0,1,9.61,9.65l0,12.68a9.64,9.64,0,0,1-9.63,9.61h0Zm128.47,240c-32.91-.2-71.23-.43-108.69-.63-.11-48.87-.33-161.64-.2-233.43l108.64.23C1903.85,518.39,1904,618.78,1904.06,660.73ZM1689.61,774.11l.37-108.56c97.79.31,277,1.52,302,1.69l1.88,108.65C1970.43,775.73,1817.57,774.77,1689.61,774.11Z"/><circle class="cls-4" cx="1637.64" cy="205.7" r="5.26"/><circle class="cls-4" cx="1637.64" cy="241.37" r="5.26"/><circle class="cls-4" cx="1637.64" cy="277.04" r="5.26"/><circle class="cls-4" cx="1637.64" cy="312.71" r="5.26"/><circle class="cls-4" cx="1743.8" cy="312.49" r="5.26" transform="translate(1427.62 2055.63) rotate(-89.88)"/><circle class="cls-4" cx="1743.88" cy="276.82" r="5.26" transform="translate(1463.37 2020.11) rotate(-89.88)"/><circle class="cls-4" cx="1743.96" cy="241.16" r="5.26" transform="translate(1499.03 1984.59) rotate(-89.88)"/><circle class="cls-4" cx="1744.03" cy="205.49" r="5.26" transform="translate(1534.78 1949.07) rotate(-89.88)"/><circle class="cls-3" cx="1521.56" cy="212.74" r="5.26" transform="translate(-0.46 3.29) rotate(-0.12)"/><circle class="cls-3" cx="1521.48" cy="177.07" r="5.26" transform="translate(-0.38 3.29) rotate(-0.12)"/><circle class="cls-3" cx="1521.41" cy="141.4" r="5.26" transform="translate(-0.3 3.29) rotate(-0.12)"/><circle class="cls-3" cx="1521.33" cy="105.73" r="5.26" transform="matrix(1, 0, 0, 1, -0.23, 3.29)"/><circle class="cls-4" cx="1683.31" cy="44.46" r="3.33" transform="translate(-0.09 3.55) rotate(-0.12)"/><circle class="cls-4" cx="1683.26" cy="21.89" r="3.33" transform="matrix(1, 0, 0, 1, -0.04, 3.55)"/><circle class="cls-4" cx="1683.22" cy="-0.68" r="3.33" transform="translate(0.01 3.55) rotate(-0.12)"/><path class="cls-4" d="M1753.3,34.35h-41.94a3,3,0,1,0,0,5.94h41.94a3,3,0,1,0,0-5.94Z"/><path class="cls-3" d="M1598.33,210.81H1556.4a3,3,0,1,0,0,5.94h41.94a3,3,0,1,0,0-5.94Z"/><path class="cls-4" d="M1669.73,305.73h41.94a3,3,0,1,0,0-5.94h-41.94a3,3,0,1,0,0,5.94Z"/><path class="cls-4" d="M1870.14,34.35H1772.4a3,3,0,1,0,0,5.94h97.74a3,3,0,1,0,0-5.94Z"/><path class="cls-4" d="M1814,371.33a3,3,0,0,0,3-3c0-49.84-32.58-61.26-34-61.72a3,3,0,0,0-1.88,5.64c.3.1,29.9,10.48,29.9,56.08A3,3,0,0,0,1814,371.33Z"/><path class="cls-3" d="M1559.36,50.75h25.16a3,3,0,1,0,0-5.94h-25.16a3,3,0,1,0,0,5.94Z"/><path class="cls-3" d="M1468.79,44.6a12.93,12.93,0,0,0-4.14,9.73l-.18,41.78a3,3,0,0,0,3,3h0a3,3,0,0,0,3-3l.18-41.79a7.11,7.11,0,0,1,2.28-5.43c4.63-4.4,15.18-4.88,18.85-4.7H1520a3,3,0,1,0,0-5.94h-28C1490.59,38.22,1476,37.73,1468.79,44.6Z"/><path class="cls-3" d="M1467.69,238.4a3,3,0,0,0-3,2.91c0,.64-.2,15.85,9.29,25.54,5,5.1,11.69,7.69,19.87,7.69a3,3,0,1,0,0-5.94c-6.51,0-11.76-2-15.6-5.89-7.73-7.86-7.62-21.09-7.62-21.29A3,3,0,0,0,1467.69,238.4Z"/><path class="cls-3" d="M1572.52,274.7a3.5,3.5,0,0,1,1.18.62c1.27,1,4.27,4.65,4.83,17.12v6.71a3,3,0,1,0,5.94,0v-6.77s0-.09,0-.13c-.49-11-2.88-18.28-7.1-21.59a7.59,7.59,0,0,0-6-1.77,3,3,0,0,0,1.15,5.83Z"/><path class="cls-3" d="M177,6.15,44.74,5.87H38A15.57,15.57,0,0,0,22.38,21.39l0,12.68h0a15.59,15.59,0,0,0,15.54,15.6h6.85L177,50v10.1a57.5,57.5,0,0,0,17.24,41.23,58.23,58.23,0,0,0,12.41,9.33l-.3,140.75a58.26,58.26,0,0,0-12.11,9.17A57.5,57.5,0,0,0,177,301.77V421.29l-105.22-.23,0,5.94,105.25.23v122L71.22,549l0,5.94,105.76.23v123h5.94v-123l107.29.23,0-5.94L182.9,549.2v-122l115.48.25a54.8,54.8,0,0,1,1-5.94L182.9,421.3V301.77a51.6,51.6,0,0,1,15.47-37,52.51,52.51,0,0,1,9-7.1,15.55,15.55,0,0,0,14.49,10l12.67,0h0a15.57,15.57,0,0,0,15.57-15.54v-2.36l96.38-.09v2.35A15.59,15.59,0,0,0,362,267.65l12.68,0h0a15.57,15.57,0,0,0,15.57-15.54l.32-148.57A15.59,15.59,0,0,0,375.09,88l-12.68,0h0a15.57,15.57,0,0,0-15.57,15.54l0,8.66L250.42,112l0-8.48A15.57,15.57,0,0,0,234.9,88l-12.68,0h0a15.57,15.57,0,0,0-15.57,15.54v.23a52.68,52.68,0,0,1-8.25-6.65,51.6,51.6,0,0,1-15.47-37V50h3.6a15.57,15.57,0,0,0,15.57-15.54l0-12.68a15.59,15.59,0,0,0-15.54-15.6H182.9V-11.35H177Zm175.8,97.34a9.63,9.63,0,0,1,9.63-9.61h0l12.68,0a9.64,9.64,0,0,1,9.61,9.65l-.32,148.57a9.63,9.63,0,0,1-9.63,9.61h0l-12.68,0a9.64,9.64,0,0,1-9.61-9.65ZM250.4,118l96.38.08-.27,125.69-96.38.09Zm-37.84-14.5a9.64,9.64,0,0,1,9.63-9.61h0l12.68,0a9.63,9.63,0,0,1,9.61,9.65l-.32,148.57a9.63,9.63,0,0,1-9.63,9.61h0l-12.68,0a9.64,9.64,0,0,1-9.61-9.65Zm-26-91.38a9.64,9.64,0,0,1,9.61,9.65l0,12.68A9.63,9.63,0,0,1,186.48,44L37.91,43.73a9.64,9.64,0,0,1-9.61-9.65l0-12.67A9.63,9.63,0,0,1,38,11.79h0ZM150.19,99.73V100m-155,3.45H5.71a22,22,0,0,0,15.23-6l.29-.28A53,53,0,0,0,37.06,58.95V49.67H43V59A58.92,58.92,0,0,1,30.86,95.25l-.32.41A39.05,39.05,0,0,1-.1,110.32H-8"/><path class="cls-4" d="M43.52,481.36a3,3,0,0,0,3-3V311a3,3,0,1,0-5.94,0v167.4A3,3,0,0,0,43.52,481.36Z"/><path class="cls-3" d="M320.6,227.22H276.33a3,3,0,1,0,0,5.94H320.6a3,3,0,0,0,0-5.94Z"/><path class="cls-3" d="M159.9,302.28a3,3,0,0,0-3,3v93.24a3,3,0,1,0,5.94,0V305.25A3,3,0,0,0,159.9,302.28Z"/><circle class="cls-3" cx="368.45" cy="231.21" r="5.26" transform="translate(136.45 599.16) rotate(-89.88)"/><circle class="cls-3" cx="368.53" cy="195.54" r="5.26" transform="translate(172.2 563.65) rotate(-89.88)"/><circle class="cls-3" cx="368.6" cy="159.87" r="5.26" transform="translate(207.94 528.13) rotate(-89.88)"/><circle class="cls-3" cx="368.68" cy="124.2" r="5.26" transform="translate(243.68 492.61) rotate(-89.88)"/><circle class="cls-3" cx="228.25" cy="231.21" r="5.26" transform="translate(-3.44 458.97) rotate(-89.88)"/><circle class="cls-3" cx="228.33" cy="195.54" r="5.26" transform="translate(32.3 423.45) rotate(-89.88)"/><circle class="cls-3" cx="228.41" cy="159.87" r="5.26" transform="translate(68.05 387.94) rotate(-89.88)"/><circle class="cls-3" cx="228.48" cy="124.2" r="5.26" transform="translate(103.79 352.42) rotate(-89.88)"/><path class="cls-4" d="M483.79,658.5a15.59,15.59,0,0,0,15.52-15.62l0-12.68h0a15.57,15.57,0,0,0-15.62-15.52l-12.54,0-.3-54.1,0-5.94v-2.56l12.79-.07A15.59,15.59,0,0,0,499,536.41L499,523.74a15.47,15.47,0,0,0-4.62-11,15.67,15.67,0,0,0-11-4.5l-148.57.82a15.57,15.57,0,0,0-15.48,15.66l.07,12.68a15.59,15.59,0,0,0,15.57,15.48H335l10.18-.06v1.59l0,5.94.3,54.79-10.43,0a15.59,15.59,0,0,0-15.52,15.62l0,12.67A15.57,15.57,0,0,0,335.16,659h.06l4.62,0A43.08,43.08,0,0,1,332,670.32C323.73,678.76,312,683,297.25,683h-.53l-10.79,0,0-13.71a15.59,15.59,0,0,0-15.57-15.52h-.06l-12.68,0h0a15.57,15.57,0,0,0-15.52,15.62l0,13.67c-35.45.16-79.91.48-119.58.8a22.33,22.33,0,0,0,3.19-11.43l.45-112.58,0-5.94.49-122,0-5.94.5-123.87h1.6a15.59,15.59,0,0,0,15.57-15.51v-3A15.57,15.57,0,0,0,128.9,268l-29.62-.12c0-12.93.15-65.18.1-98.19h1.19a10.63,10.63,0,0,0,0-21.26H99.3c0-1,0-1.85,0-2.61-.07-5.57,1.45-9.93,4.51-13a14.71,14.71,0,0,1,2.16-1.76,10.61,10.61,0,0,0,10,7.18h0a10.62,10.62,0,0,0,10.6-10.53H148.3a10.63,10.63,0,0,0,21.25-.1v-55a10.63,10.63,0,1,0-21.26,0v.72H126.51v-.74a10.63,10.63,0,0,0-10.63-10.61h0a10.64,10.64,0,0,0-10.6,10.65v.7H71.12c-.44,0-10.76-.18-17.83,6.79C49,84.44,46.9,90.26,47,97.52c.08,6.84.12,26.89.12,51H45.57a10.63,10.63,0,0,0,0,21.26H47.1c0,41-.09,85.91-.11,97.86l-22.45-.09h-.06A15.57,15.57,0,0,0,8.91,283.1v3h0a15.57,15.57,0,0,0,15.51,15.63h1.53L24.44,672.07a22.34,22.34,0,0,0,3.85,12.65l-6.34.06a3,3,0,0,0-2.94,3l2,114.59a3,3,0,0,0,3,2.92h0c1.95,0,113.69-.91,218.55-1.61l0,14.31a15.57,15.57,0,0,0,15.57,15.52h.05l12.68,0a15.57,15.57,0,0,0,15.52-15.62l0-14.45c60.43-.37,112.42-.61,130.64-.49h.57c16.45,0,29.56-4.88,39-14.52,15.87-16.25,15.34-40,15.31-40.91l-.18-32.23-.31-56.73ZM154.23,72.7a4.69,4.69,0,0,1,9.38,0v55a4.69,4.69,0,1,1-9.38,0Zm-5.94,6.66v42.46H126.61l-.09-42.46ZM115.87,68h0a4.69,4.69,0,0,1,4.69,4.68l.12,55a4.69,4.69,0,0,1-4.68,4.7h0a4.69,4.69,0,0,1-4.69-4.68l-.12-55A4.69,4.69,0,0,1,115.87,68ZM57.44,84.47c5.24-5.2,13.47-5.1,13.61-5.11h34.22l.1,45.24a21.63,21.63,0,0,0-5.71,4c-4.28,4.22-6.4,10-6.31,17.31,0,.75,0,1.61,0,2.55L53,148.56c0-24.18,0-44.26-.12-51.11C52.86,91.88,54.38,87.52,57.44,84.47ZM45.6,163.89h0a4.69,4.69,0,0,1,0-9.38l55-.12h0a4.69,4.69,0,0,1,0,9.37Zm47.74,104-40.41-.09c0-11.83.09-56.85.11-98l40.4-.09C93.49,202.69,93.37,254.93,93.34,267.88Zm-68.91,28a9.63,9.63,0,0,1-9.59-9.67v-3a9.64,9.64,0,0,1,9.63-9.59h0l24.76.1a3,3,0,0,0,.67.08l46.35.11h0l32.56.13a9.63,9.63,0,0,1,9.59,9.67v3a9.64,9.64,0,0,1-9.63,9.59h0Zm96.86,6.33L119.8,672.45a16.55,16.55,0,0,1-16.53,16.46h-.07l-56.35-.23a16.53,16.53,0,0,1-16.46-16.6l1.49-370.28ZM26.88,799.35,25,690.69l9.11-.08a22.34,22.34,0,0,0,12.71,4l56.35.23h.09a22.36,22.36,0,0,0,14.06-5c41-.33,87.81-.67,124.82-.84l.37,108.7C146.79,798.39,45.35,799.2,26.88,799.35Zm244,28.2-12.67,0h0a9.63,9.63,0,0,1-9.63-9.6L248,669.42a9.63,9.63,0,0,1,9.59-9.66h0l12.68,0h0a9.64,9.64,0,0,1,9.63,9.59l.51,148.57A9.64,9.64,0,0,1,270.86,827.55ZM334.94,547h-.05a9.64,9.64,0,0,1-9.63-9.57l-.07-12.68a9.63,9.63,0,0,1,9.58-9.68l148.57-.82h.06a9.63,9.63,0,0,1,9.63,9.58l.07,12.67a9.64,9.64,0,0,1-9.57,9.68Zm130.23,67.8-113.73.39-.35-62.34,113.73-.63Zm-130,38.32h0a9.63,9.63,0,0,1-9.63-9.6l0-12.67a9.63,9.63,0,0,1,9.6-9.66l148.57-.51h0a9.63,9.63,0,0,1,9.63,9.59h0l0,12.67a9.64,9.64,0,0,1-9.6,9.66ZM452.28,784.26c-8.35,8.55-20.21,12.81-35.25,12.73-18.24-.13-70.25.11-130.7.49L286,688.95l10.72,0h.57c16.45,0,29.56-4.88,39-14.52A50.2,50.2,0,0,0,346.39,659l119-.41.49,89C465.91,747.83,466.41,769.79,452.28,784.26Z"/><circle class="cls-4" cx="116.46" cy="285.06" r="3.92" transform="translate(-169.06 400.38) rotate(-89.77)"/><circle class="cls-4" cx="89.87" cy="284.95" r="3.92" transform="translate(-195.44 373.67) rotate(-89.77)"/><circle class="cls-4" cx="63.28" cy="284.84" r="3.92" transform="translate(-221.82 346.97) rotate(-89.77)"/><circle class="cls-4" cx="36.68" cy="284.74" r="3.92" transform="translate(-248.2 320.27) rotate(-89.77)"/><circle class="cls-4" cx="158.92" cy="78.59" r="2.13"/><circle class="cls-4" cx="158.92" cy="93.01" r="2.13"/><circle class="cls-4" cx="158.92" cy="107.44" r="2.13"/><circle class="cls-4" cx="158.92" cy="121.87" r="2.13"/><circle class="cls-4" cx="115.98" cy="121.78" r="2.13" transform="translate(-0.26 0.24) rotate(-0.12)"/><circle class="cls-4" cx="115.95" cy="107.35" r="2.13" transform="translate(-0.23 0.24) rotate(-0.12)"/><circle class="cls-4" cx="115.92" cy="92.93" r="2.13" transform="translate(-0.2 0.25) rotate(-0.12)"/><circle class="cls-4" cx="115.89" cy="78.5" r="2.13" transform="translate(-0.16 0.24) rotate(-0.12)"/><circle class="cls-4" cx="51.48" cy="159.19" r="2.13" transform="translate(-0.33 0.11) rotate(-0.12)"/><circle class="cls-4" cx="65.9" cy="159.16" r="2.13" transform="translate(-0.34 0.14) rotate(-0.12)"/><circle class="cls-4" cx="80.33" cy="159.13" r="2.13" transform="translate(-0.34 0.17) rotate(-0.12)"/><circle class="cls-4" cx="94.75" cy="159.09" r="2.13" transform="translate(-0.33 0.2) rotate(-0.12)"/><circle class="cls-3" cx="165.62" cy="28.03" r="5.26" transform="translate(137.23 193.59) rotate(-89.88)"/><circle class="cls-3" cx="129.95" cy="27.96" r="5.26" transform="translate(101.72 157.85) rotate(-89.88)"/><circle class="cls-3" cx="94.28" cy="27.88" r="5.26" transform="translate(66.2 122.1) rotate(-89.88)"/><circle class="cls-3" cx="58.62" cy="27.8" r="5.26" transform="translate(30.69 86.36) rotate(-89.88)"/><path class="cls-3" d="M242.87,62.14a8.66,8.66,0,0,1-6.65-2.74c-4.53-4.8-5-15-4.77-18.54,0-.06,0-.12,0-.18,0-13.38-2.15-24-6.39-31.57-3.36-6-6.89-7.87-7.28-8.06a3,3,0,1,0-2.63,5.33c.1.05,10.34,5.91,10.36,34.22-.08,1.44-.61,15.43,6.37,22.86a14.5,14.5,0,0,0,11,4.62,3,3,0,0,0,0-5.94Z"/><path class="cls-3" d="M319.69,62.14H272.62a3,3,0,1,0,0,5.94h47.07a3,3,0,1,0,0-5.94Z"/><path class="cls-3" d="M393.12,68.06c.11,0,11-1.38,17.5,4.58,3.59,3.31,5.23,8.43,4.87,15.22A3,3,0,0,0,418.3,91h.16a3,3,0,0,0,3-2.82c.45-8.65-1.84-15.35-6.8-19.92-8-7.4-20.23-6.32-22.08-6.11h-45a3,3,0,1,0,0,5.94h45.21Z"/><path class="cls-3" d="M419.87,274.31a3,3,0,0,0-4,1.27c-.27.51-6.8,12.47-28.16,12.47H358.41a3,3,0,0,0,0,5.94h29.31c25.2,0,33.12-15.07,33.45-15.71A3,3,0,0,0,419.87,274.31Z"/><path class="cls-3" d="M339,288.78c-.05,0-5.11-2.38-7.21-7.06a6.28,6.28,0,0,0-5.73-3.68H269.55a6.27,6.27,0,0,0-5.92,4.13,8.92,8.92,0,0,1-9,6.35,3,3,0,1,0,0,5.94,14.78,14.78,0,0,0,14.6-10.3.34.34,0,0,1,.32-.18h56.53a.34.34,0,0,1,.31.17c3.05,6.8,9.92,9.92,10.21,10.05a3,3,0,0,0,2.42-5.43Z"/><path class="cls-3" d="M257.11,390.55H234c-6.62,0-12-5.06-12-11.28V315.4a77.88,77.88,0,0,1,1.92-16.85,5.17,5.17,0,0,1,5.58-3.86,3,3,0,1,0,.59-5.91,11.07,11.07,0,0,0-12,8.49A83.85,83.85,0,0,0,216,315.4v63.87c0,9.49,8.05,17.22,18,17.22h23.14a3,3,0,0,0,0-5.94Z"/><path class="cls-3" d="M470.59,148.66h-46a7.92,7.92,0,0,0-7.91,7.91v46a7.92,7.92,0,0,0,7.91,7.91h46a7.92,7.92,0,0,0,7.91-7.91v-46A7.92,7.92,0,0,0,470.59,148.66Zm2,53.92a2,2,0,0,1-2,2h-46a2,2,0,0,1-2-2V195l21.93-.15a3,3,0,0,0,0-5.94h0l-21.88.15v-6.38l21.74-.23a3,3,0,1,0-.06-5.94l-21.67.23v-6.44l21.93-.16a3,3,0,0,0,0-5.94h0l-21.88.16v-7.75a2,2,0,0,1,2-2h46a2,2,0,0,1,2,2Z"/><path class="cls-3" d="M518.77,198.79a3,3,0,0,0-3-3H498.31a3,3,0,1,0,0,5.94H515.8A3,3,0,0,0,518.77,198.79Z"/><path class="cls-3" d="M498.31,176.48a3,3,0,1,0,0,5.94h32.35a3,3,0,1,0,0-5.94Z"/><path class="cls-3" d="M542.15,160.1a3,3,0,0,0-3-3H498.31a3,3,0,1,0,0,5.94h40.88A3,3,0,0,0,542.15,160.1Z"/><path class="cls-3" d="M1334.85,159.59h-46.58a3,3,0,1,0,0,5.94h46.58a3,3,0,1,0,0-5.94Z"/><path class="cls-3" d="M1334.85,139.11h-33a3,3,0,1,0,0,5.94h33a3,3,0,1,0,0-5.94Z"/><path class="cls-3" d="M1334.37,180.08h-54a3,3,0,1,0,0,5.94h54a3,3,0,1,0,0-5.94Z"/></g></g></svg>