<svg id="Layer_1" data-name="Layer 1" xmlns="http://www.w3.org/2000/svg" viewBox="0 0 310 310"><defs><style>.cls-1{fill:#fff;}.cls-2{fill:#80cee5;}</style></defs><title>feather</title><path class="cls-1" d="M302.41,53.82c-11.5-14.79-59.09-6.23-97,3.57-27.32,7.06-58.73,21.73-86.17,40.26C86.09,120,59.94,147,43.62,175.64l-.14.26c-7.23,14.86-11.25,36.84-4.06,52a401.17,401.17,0,0,0-29.17,51.41,4.5,4.5,0,1,0,8.18,3.75,395.91,395.91,0,0,1,20.11-37q3.18-5.2,6.4-10.08c6.39,6.67,15.77,10.13,28,10.29h1.63c31.08,0,46.56-12.49,53.07-20s9.58-16.55,8.29-24.56c-1.49-9.22-9.12-15.47-19-15.57h-.23c-9.83,0-17.76,6.06-19.34,14.79s1.54,13.74,4.43,16.43a4.5,4.5,0,1,0,6.13-6.59c-1.84-1.71-2.4-4.41-1.71-8.24.93-5.14,6.15-7.47,10.63-7.4,4.31,0,9.25,2.16,10.19,8,.87,5.38-1.4,11.66-6.21,17.24-9.52,11-26.94,17.19-47.76,16.89-10.48-.14-18.13-3.14-22.8-8.91a4.56,4.56,0,0,0,.59-.11l18.55-4.67a4.5,4.5,0,0,0-2.2-8.73l-8.8,2.21c9.74-12.57,19.43-22.69,28.7-29.85a4.5,4.5,0,0,0-5.5-7.12c-2.09,1.62-4.16,3.34-6.2,5.14l1.71-7a4.5,4.5,0,1,0-8.74-2.13L63.53,196a4.47,4.47,0,0,0-.11,1.08,242.8,242.8,0,0,0-17.7,21.86c-3.24-12.81,1.19-29.39,5.8-38.93,15.64-27.39,40.8-53.27,72.77-74.86,26.63-18,57-32.19,83.39-39C232,59.82,253,56,268.5,55.07c13.73-.84,23.62.68,26.61,4.06-.28.85-2,4.18-12.4,11.33-7.9,5.42-17.89,11.1-26.71,16.11-7.19,4.08-13.39,7.61-17.09,10.22-4.09,2.89-7.32,5.17-6.37,8.92.87,3.43,4.27,3.84,6.3,4.08,4.45.53,8.3,1.42,10.31,6.88a9,9,0,0,1,.37,1.34c-3.85-.46-11.45-.88-27.17-1.08a4.5,4.5,0,1,0-.11,9c9.47.12,20.44.46,25.32.88-2.19,3.8-5.9,7.65-10.36,11.23-2.37-.56-7.56-1.14-20.16-1.37a4.5,4.5,0,1,0-.17,9c2.76.05,5.74.15,8.49.27a90.13,90.13,0,0,1-11.58,5.49c-6.53,2.51-17,5.69-27.19,8.78-30.63,9.29-35.87,11.46-37.33,15.45a5,5,0,0,0,.5,4.49c1,1.52,1.75,3.8,1.12,5.19-.73,1.61-3.59,2.87-7.83,3.46a4.5,4.5,0,1,0,1.25,8.91c7.67-1.07,12.64-4,14.77-8.63a13.29,13.29,0,0,0,0-10.31c5.58-2.51,19.51-6.74,30.13-10,10.31-3.13,21-6.37,27.81-9A97.45,97.45,0,0,0,246.44,142c13.37-12.26,13.45-22.22,11.16-28.42a17.91,17.91,0,0,0-10.81-11.19c3.45-2.17,8.27-4.91,13.66-8C284.77,80.57,302.12,70.07,304,60.7A8.26,8.26,0,0,0,302.41,53.82Z"/><path class="cls-1" d="M161,120.57a139.39,139.39,0,0,1,12.37-9,4.5,4.5,0,1,0-4.94-7.53,145.25,145.25,0,0,0-13.26,9.71,4.5,4.5,0,0,0,5.83,6.86Z"/><path class="cls-1" d="M143.25,128.06a4.5,4.5,0,0,0-6.28-1c-16.11,11.56-38.09,32.47-39,33.35a4.5,4.5,0,1,0,6.21,6.51c.13-.12,7.6-7.23,16.89-15.37a4.44,4.44,0,0,0,1,.13,4.51,4.51,0,0,0,1.21-.17c.37-.1,37.5-10.38,55.51-10.38a4.5,4.5,0,0,0,0-9c-11.62,0-29.78,3.75-42.68,6.82,2.1-1.65,4.15-3.2,6.09-4.59A4.5,4.5,0,0,0,143.25,128.06Z"/><path class="cls-2" d="M251.41,179.15H199.65c-7.75.12-16.08,4.09-16.08,12.51a10.52,10.52,0,0,0,3.32,7.91c4.1,3.82,10.53,3.72,11.94,3.65l16.75.15h.36c1.3-.1,4.14.2,5.11,1.11.11.1.27.25.27.83,0,2.44-5.23,2.57-5.31,2.57l-37.21.08a4.5,4.5,0,0,0,0,9h0l37.17-.08c.73,0,7.25-.06,11.28-4.05a10.35,10.35,0,0,0,3.06-7.52,9.86,9.86,0,0,0-3.13-7.42c-3.94-3.67-10-3.6-11.69-3.51l-16.74-.15h-.36c-1.26.09-4.24-.19-5.38-1.25a1.55,1.55,0,0,1-.45-1.33c0-3.14,7.17-3.51,7.15-3.51h51.69a4.5,4.5,0,0,0,0-9Z"/><path class="cls-2" d="M184,229.72c-43-.41-44.48,0-45.13.13a4.5,4.5,0,0,0,1.81,8.81c2.83-.23,28-.09,43.29.06h.12c2.52,0,8.28.6,10.51,2.8a2.49,2.49,0,0,1,.8,2,2.3,2.3,0,0,1-.76,1.79c-2.41,2.4-8.94,3.17-11.82,3.17h0l-25.75.11a4.5,4.5,0,0,0,0,9h0l25.7-.11c1.29,0,12.48-.08,18.21-5.78a11.31,11.31,0,0,0,3.42-8.18,11.5,11.5,0,0,0-3.5-8.39C195.44,229.76,185.42,229.71,184,229.72Z"/><path class="cls-2" d="M84.22,33.36H141c.42,0,.84,0,1.24,0a6.88,6.88,0,0,1,4.08,1.25,1.85,1.85,0,0,1,.55,1.54,1.4,1.4,0,0,1-.46,1.21c-1.19,1.08-4.1,1.42-5.34,1.31a15.18,15.18,0,0,0-1.53-.07l-35.71.08h-.23c-5.8.31-16.78,3.67-16.78,14.21,0,5.53,3.09,9.94,8.49,12.1a21.53,21.53,0,0,0,7.33,1.45h18.1a4.5,4.5,0,1,0,0-9H102.65c-.7,0-6.84-.21-6.84-4.55s7.34-5.14,8.18-5.21l35.58-.08c.23,0,.43,0,.64,0,2.59.24,8.48-.19,12.24-3.61a10.34,10.34,0,0,0,3.4-7.87,10.8,10.8,0,0,0-3.49-8.19c-3.55-3.26-8.68-3.76-10.89-3.57l-.49,0H84.22a4.5,4.5,0,0,0,0,9Z"/><path class="cls-2" d="M32.18,88.77H65.6c1.58.09,5.07.69,5.07,4.24,0,4.4-5.49,5.51-6.08,5.62a4.5,4.5,0,0,0,.72,8.94,4.55,4.55,0,0,0,.73-.06c4.71-.77,13.63-4.79,13.63-14.5,0-9.4-8.26-13.07-13.82-13.24H31.66c-1.84.14-5.19-.22-6.5-1.44a2.68,2.68,0,0,1,0-3.42c1.55-1.46,5.37-1.75,7-1.65H65.71a4.5,4.5,0,0,0,0-9H32.55c-1.45-.07-8.94-.22-13.52,4.07a11.62,11.62,0,0,0,0,16.62C23.55,89.09,30.65,88.87,32.18,88.77Z"/><path class="cls-2" d="M133.7,248.54H122.08a4.5,4.5,0,0,0,0,9H133.7a4.5,4.5,0,0,0,0-9Z"/><path class="cls-2" d="M40.26,120.48c1.13.26,4.59,1.28,4.59,4.23s-3.87,3.39-4.66,3.48l-15,.07a4.5,4.5,0,0,0,0,9h0l15.22-.07h.29a18.33,18.33,0,0,0,6.11-1.66,11.57,11.57,0,0,0,7-10.8c0-8.85-8.14-12.49-12.44-13.18a4.5,4.5,0,0,0-.71-.06H10.33a4.5,4.5,0,0,0,0,9Z"/><circle class="cls-2" cx="70.33" cy="47.37" r="4.84"/><circle class="cls-2" cx="54.19" cy="47.37" r="4.84"/><circle class="cls-2" cx="278.17" cy="163.01" r="4.84"/><circle class="cls-2" cx="262.04" cy="163.01" r="4.84"/></svg>