<?xml version="1.0" encoding="utf-8"?>
<!-- Generator: Adobe Illustrator 21.0.0, SVG Export Plug-In . SVG Version: 6.00 Build 0)  -->
<svg version="1.1" id="Layer_1" xmlns="http://www.w3.org/2000/svg" xmlns:xlink="http://www.w3.org/1999/xlink" x="0px" y="0px"
	 viewBox="0 0 310 310" style="enable-background:new 0 0 310 310;" xml:space="preserve">
<style type="text/css">
	.st0{fill:#FFFFFF;}
	.st1{fill:#80CEE5;}
	.st2{fill:#FE4A49;}
</style>
<title>feather</title>
<path class="st0" d="M302.4,53.8c-11.5-14.8-59.1-6.2-97,3.6c-27.3,7.1-58.7,21.7-86.2,40.3c-33.2,22.4-59.3,49.4-75.6,78l-0.1,0.3
	c-7.2,14.9-11.2,36.8-4.1,52c-11,16.4-20.7,33.6-29.2,51.4c-1.1,2.2-0.1,4.9,2.1,6c2.2,1.1,4.9,0.1,6-2.1c0,0,0-0.1,0.1-0.1
	c6-12.7,12.8-25,20.1-37c2.1-3.5,4.3-6.8,6.4-10.1c6.4,6.7,15.8,10.1,28,10.3h1.6c31.1,0,46.6-12.5,53.1-20s9.6-16.6,8.3-24.6
	c-1.5-9.2-9.1-15.5-19-15.6h-0.2c-9.8,0-17.8,6.1-19.3,14.8s1.5,13.7,4.4,16.4c1.8,1.7,4.7,1.6,6.4-0.2c1.7-1.8,1.6-4.7-0.2-6.4l0,0
	c-1.8-1.7-2.4-4.4-1.7-8.2c0.9-5.1,6.2-7.5,10.6-7.4c4.3,0,9.2,2.2,10.2,8c0.9,5.4-1.4,11.7-6.2,17.2c-9.5,11-26.9,17.2-47.8,16.9
	c-10.5-0.1-18.1-3.1-22.8-8.9c0.2,0,0.4-0.1,0.6-0.1l18.5-4.7c2.4-0.6,3.9-3.1,3.3-5.5s-3.1-3.9-5.5-3.3l0,0l-8.8,2.2
	c9.7-12.6,19.4-22.7,28.7-29.9c1.9-1.6,2.2-4.4,0.6-6.3c-1.5-1.9-4.2-2.2-6.1-0.8c-2.1,1.6-4.2,3.3-6.2,5.1l1.7-7
	c0.7-2.4-0.7-4.9-3.1-5.5s-4.9,0.7-5.5,3.1c0,0.1,0,0.2-0.1,0.3L63.5,196c-0.1,0.4-0.1,0.7-0.1,1.1c-6.3,6.9-12.2,14.2-17.7,21.9
	c-3.2-12.8,1.2-29.4,5.8-38.9c15.6-27.4,40.8-53.3,72.8-74.9c26.6-18,57-32.2,83.4-39C232,59.8,253,56,268.5,55.1
	c13.7-0.8,23.6,0.7,26.6,4.1c-0.3,0.8-2,4.2-12.4,11.3c-7.9,5.4-17.9,11.1-26.7,16.1c-7.2,4.1-13.4,7.6-17.1,10.2
	c-4.1,2.9-7.3,5.2-6.4,8.9c0.9,3.4,4.3,3.8,6.3,4.1c4.4,0.5,8.3,1.4,10.3,6.9c0.2,0.4,0.3,0.9,0.4,1.3c-3.9-0.5-11.4-0.9-27.2-1.1
	c-2.5,0-4.5,2-4.6,4.4c0,2.5,2,4.5,4.4,4.6c9.5,0.1,20.4,0.5,25.3,0.9c-2.2,3.8-5.9,7.7-10.4,11.2c-2.4-0.6-7.6-1.1-20.2-1.4
	c-2.5,0-4.5,1.9-4.6,4.4c0,2.5,1.9,4.5,4.4,4.6c2.8,0.1,5.7,0.1,8.5,0.3c-3.7,2.1-7.6,3.9-11.6,5.5c-6.5,2.5-17,5.7-27.2,8.8
	c-30.6,9.3-35.9,11.5-37.3,15.4c-0.6,1.5-0.4,3.2,0.5,4.5c1,1.5,1.8,3.8,1.1,5.2c-0.7,1.6-3.6,2.9-7.8,3.5c-2.5,0.3-4.2,2.5-4,5
	c0.3,2.5,2.5,4.2,5,4c0.1,0,0.1,0,0.2,0c7.7-1.1,12.6-4,14.8-8.6c1.4-3.3,1.4-7,0-10.3c5.6-2.5,19.5-6.7,30.1-10
	c10.3-3.1,21-6.4,27.8-9c10.8-4.1,20.8-10.1,29.4-17.8c13.4-12.3,13.5-22.2,11.2-28.4c-1.7-5.2-5.7-9.3-10.8-11.2
	c3.4-2.2,8.3-4.9,13.7-8c24.3-13.8,41.7-24.3,43.5-33.7C304.5,58.3,303.9,55.8,302.4,53.8z"/>
<path class="st0" d="M161,120.6c4-3.2,8.1-6.2,12.4-9c2.1-1.4,2.7-4.2,1.3-6.2s-4.2-2.7-6.2-1.3c-4.6,3-9,6.2-13.3,9.7
	c-1.9,1.6-2.1,4.5-0.5,6.3S159.1,122.2,161,120.6L161,120.6L161,120.6z"/>
<path class="st0" d="M143.2,128.1c-1.5-2-4.3-2.5-6.3-1c-16.1,11.6-38.1,32.5-39,33.4c-1.8,1.7-2,4.5-0.3,6.4s4.5,2,6.4,0.3
	c0.1-0.1,0.1-0.1,0.2-0.2c0.1-0.1,7.6-7.2,16.9-15.4c0.3,0.1,0.7,0.1,1,0.1c0.4,0,0.8-0.1,1.2-0.2c0.4-0.1,37.5-10.4,55.5-10.4
	c2.5,0,4.5-2,4.5-4.5s-2-4.5-4.5-4.5c-11.6,0-29.8,3.8-42.7,6.8c2.1-1.6,4.1-3.2,6.1-4.6C144.2,132.9,144.7,130.1,143.2,128.1
	C143.3,128.1,143.3,128.1,143.2,128.1z"/>
<path class="st1" d="M251.4,179.1h-51.8c-7.8,0.1-16.1,4.1-16.1,12.5c-0.1,3,1.1,5.9,3.3,7.9c4.1,3.8,10.5,3.7,11.9,3.6l16.8,0.1
	h0.4c1.3-0.1,4.1,0.2,5.1,1.1c0.1,0.1,0.3,0.2,0.3,0.8c0,2.4-5.2,2.6-5.3,2.6l-37.2,0.1c-2.5,0-4.5,2-4.5,4.5s2,4.5,4.5,4.5l0,0
	l37.2-0.1c0.7,0,7.2-0.1,11.3-4.1c2-2,3.1-4.7,3.1-7.5c0.1-2.8-1.1-5.5-3.1-7.4c-3.9-3.7-10-3.6-11.7-3.5l-16.7-0.1h-0.4
	c-1.3,0.1-4.2-0.2-5.4-1.2c-0.4-0.3-0.5-0.8-0.4-1.3c0-3.1,7.2-3.5,7.1-3.5h51.7c2.5,0,4.5-2,4.5-4.5S253.9,179.1,251.4,179.1
	L251.4,179.1z"/>
<path class="st1" d="M184,229.7c-43-0.4-44.5,0-45.1,0.1c-2.4,0.6-3.9,3-3.3,5.4c0.6,2.3,2.8,3.8,5.1,3.4c2.8-0.2,28-0.1,43.3,0.1
	h0.1c2.5,0,8.3,0.6,10.5,2.8c0.6,0.5,0.9,1.2,0.8,2c0,0.7-0.3,1.3-0.8,1.8c-2.4,2.4-8.9,3.2-11.8,3.2l0,0l-25.8,0.1
	c-2.5,0-4.5,2-4.5,4.5s2,4.5,4.5,4.5l0,0l25.7-0.1c1.3,0,12.5-0.1,18.2-5.8c2.2-2.1,3.4-5.1,3.4-8.2c0-3.2-1.2-6.2-3.5-8.4
	C195.4,229.8,185.4,229.7,184,229.7z"/>
<path class="st1" d="M84.2,33.4H141c0.4,0,0.8,0,1.2,0c1.5,0,2.9,0.4,4.1,1.2c0.4,0.4,0.6,1,0.6,1.5c0.1,0.5-0.1,0.9-0.5,1.2
	c-1.2,1.1-4.1,1.4-5.3,1.3c-0.5,0-1-0.1-1.5-0.1l-35.7,0.1h-0.2c-5.8,0.3-16.8,3.7-16.8,14.2c0,5.5,3.1,9.9,8.5,12.1
	c2.3,0.9,4.8,1.4,7.3,1.4h18.1c2.5,0,4.5-2,4.5-4.5s-2-4.5-4.5-4.5l0,0h-18.1c-0.7,0-6.8-0.2-6.8-4.5s7.3-5.1,8.2-5.2l35.6-0.1
	c0.2,0,0.4,0,0.6,0c2.6,0.2,8.5-0.2,12.2-3.6c2.2-2,3.5-4.9,3.4-7.9c0.1-3.1-1.2-6.1-3.5-8.2c-3.6-3.3-8.7-3.8-10.9-3.6H141H84.2
	c-2.5,0-4.5,2-4.5,4.5S81.7,33.4,84.2,33.4z"/>
<path class="st1" d="M32.2,88.8h33.4c1.6,0.1,5.1,0.7,5.1,4.2c0,4.4-5.5,5.5-6.1,5.6c-2.5,0.4-4.1,2.7-3.7,5.2
	c0.4,2.2,2.2,3.8,4.4,3.8c0.2,0,0.5,0,0.7-0.1c4.7-0.8,13.6-4.8,13.6-14.5c0-9.4-8.3-13.1-13.8-13.2H31.7c-1.8,0.1-5.2-0.2-6.5-1.4
	c-0.8-1-0.8-2.4,0-3.4c1.5-1.5,5.4-1.8,7-1.7h33.5c2.5,0,4.5-2,4.5-4.5s-2-4.5-4.5-4.5H32.5c-1.5-0.1-8.9-0.2-13.5,4.1
	c-4.6,4.5-4.7,11.8-0.2,16.4c0.1,0.1,0.1,0.1,0.2,0.2C23.5,89.1,30.6,88.9,32.2,88.8z"/>
<path class="st2" d="M133.7,248.5h-11.6c-2.5,0-4.5,2-4.5,4.5c0,2.5,2,4.5,4.5,4.5h11.6c2.5,0,4.5-2,4.5-4.5
	S136.2,248.5,133.7,248.5L133.7,248.5z"/>
<path class="st1" d="M40.3,120.5c1.1,0.3,4.6,1.3,4.6,4.2s-3.9,3.4-4.7,3.5l-15,0.1c-2.5,0-4.5,2-4.5,4.5s2,4.5,4.5,4.5l0,0
	l15.2-0.1h0.3c2.1-0.2,4.2-0.8,6.1-1.7c4.3-1.9,7.1-6.1,7-10.8c0-8.8-8.1-12.5-12.4-13.2c-0.2,0-0.5-0.1-0.7-0.1H10.3
	c-2.5,0-4.5,2-4.5,4.5s2,4.5,4.5,4.5L40.3,120.5z"/>
<circle class="st2" cx="70.3" cy="47.4" r="4.8"/>
<circle class="st2" cx="54.2" cy="47.4" r="4.8"/>
<circle class="st2" cx="278.2" cy="163" r="4.8"/>
<circle class="st2" cx="262" cy="163" r="4.8"/>
</svg>
