<svg id="Layer_1" data-name="Layer 1" xmlns="http://www.w3.org/2000/svg" viewBox="0 0 308.08 57.3"><defs><style>.cls-1{fill:#fff;}</style></defs><title>WHITE_WORDMARK_NASCENT_LOGO</title><path class="cls-1" d="M11.6,9.85h4.2L37.45,39.71V9.85h3.71V46.06H37.65L15.32,15.32V46.06H11.6Z"/><path class="cls-1" d="M68.62,9.61h3.86L87,46.06H83.09L79.77,37.7H61.2l-3.27,8.36H54.11ZM78.4,34.19,70.48,14.25l-8,19.94Z"/><path class="cls-1" d="M97.64,42.39l2-2.93a23.38,23.38,0,0,0,12.95,3.66c7.48,0,10.8-2.1,10.8-7.09s-4.3-5.86-10.8-7c-7.82-1.37-13.09-2.69-13.09-10,0-7,4.5-9.72,13.09-9.72,5.67,0,9.72,1.27,12.61,3.22l-2.05,3.13a19.76,19.76,0,0,0-10.55-2.83c-6.5,0-9.28,1.81-9.28,6.11,0,4.59,3.76,5.47,10.21,6.65,7.92,1.42,13.63,2.59,13.63,10.36,0,7.18-4.59,10.65-14.46,10.65A26.2,26.2,0,0,1,97.64,42.39Z"/><path class="cls-1" d="M140.06,27.93c0-12.66,6.55-18.67,18-18.67,5.13,0,9.48,1.51,12.66,4.54L168,16.55a14.52,14.52,0,0,0-10-3.62c-9.33,0-14.12,5-14.12,15s4.49,15,14.17,15c5.42,0,8.06-1.71,10.21-3.71L171,41.86c-2.49,2.44-6.06,4.74-13.09,4.74C145.73,46.6,140.06,40.2,140.06,27.93Z"/><path class="cls-1" d="M186.39,9.85h23.94v3.66H190.25v12h19.59V29.1H190.25V42.54h20.28v3.52H186.39Z"/><path class="cls-1" d="M227.65,9.85h4.2l21.65,29.85V9.85h3.71V46.06h-3.52L231.36,15.32V46.06h-3.71Z"/><path class="cls-1" d="M283.73,13.52H270.15V9.85h31v3.66H287.59V46.06h-3.86Z"/></svg>