<svg id="Layer_1" data-name="Layer 1" xmlns="http://www.w3.org/2000/svg" viewBox="0 0 310 310"><defs><style>.cls-1{fill:#fff;}.cls-2{fill:#80cee5;}</style></defs><title>lightning </title><path class="cls-1" d="M253.83,91.25a5.49,5.49,0,0,0-5.08-3.39h-69l43.36-67a5.5,5.5,0,0,0-8.62-6.76h0L86.64,149.86a5.5,5.5,0,0,0,5.3,9.12l70.64-17.12L92.36,242.78a5.5,5.5,0,0,0,8.42,7L252.64,97.25A5.49,5.49,0,0,0,253.83,91.25Zm-127,118.8L176.6,138.5a5.51,5.51,0,0,0-4.49-8.65,5.62,5.62,0,0,0-1.32.16L103,146.43l87.5-93-23,35.5a5.5,5.5,0,0,0,4.62,8.49h66.72Z"/><path class="cls-2" d="M40.17,45.43a4.81,4.81,0,0,0,6.4-2.23c.36-.75,9.2-18.3,32.92-18.3,23.14,0,28.39,14.4,28.59,15a4.8,4.8,0,0,0,5.35,3.26c3-.49,11.71-.92,16.22,2.92,2.13,1.81,3.17,4.48,3.17,8.17,0,15.42-10.23,16.62-13.37,16.62-.12,0-12.46-.22-12.46-8,0-1.19.18-2.75,1-3.43,1.11-.9,3.55-.76,4.45-.56a4.79,4.79,0,1,0,2.18-9.34c-.76-.18-7.55-1.61-12.58,2.38-2.12,1.69-4.66,5-4.66,11,0,12.88,13.19,17.55,22.05,17.55,8.53,0,23-5.52,23-26.21,0-8.22-3.58-13-6.59-15.51-6.32-5.34-15.26-5.71-20.3-5.43-3.48-6.17-13.11-18-36-18-29.93,0-41.11,22.78-41.57,23.75A4.79,4.79,0,0,0,40.17,45.43Z"/><path class="cls-2" d="M237.06,167.24c-19.76,0-28.36,10-31.61,15.56-4.53-.21-12.19.25-17.67,4.88-2.71,2.29-5.94,6.57-5.94,13.94,0,18.45,12.92,23.37,20.55,23.37,7.94,0,19.76-4.22,19.76-15.86,0-5.46-2.33-8.45-4.28-10-4.6-3.65-10.76-2.34-11.45-2.18a4.79,4.79,0,0,0,2.14,9.35c.95-.2,2.69-.19,3.37.35a3.45,3.45,0,0,1,.64,2.48c0,1.58-.43,3.39-3.63,4.84a18.17,18.17,0,0,1-6.54,1.42c-3.3,0-11-1.34-11-13.78,0-3,.83-5.16,2.52-6.61,3.73-3.17,11.06-2.8,13.55-2.39a4.74,4.74,0,0,0,5.35-3.2c.18-.51,4.63-12.6,24.21-12.6,20.11,0,27.64,14.82,28,15.51a4.8,4.8,0,0,0,8.65-4.14C273.29,187.35,263.42,167.24,237.06,167.24Z"/><path class="cls-2" d="M295.33,117.9c-.2-.47-5.13-11.4-17.71-11.4-8.18,0-13.55,5.82-16.38,10.09a28.69,28.69,0,0,0-8.66-1.21,15.49,15.49,0,0,0-12.28,5.9,17.53,17.53,0,0,0-3.88,10.59,19.69,19.69,0,0,0,3.79,11.36c2.35,3.16,6.8,6.92,14.6,6.95l29.41.89h.15a4.79,4.79,0,0,0,.14-9.59L255,140.6h-.14c-8.78,0-8.88-8.36-8.88-8.72,0-1.77,1.62-6.91,6.57-6.91s7.11,1.26,7.56,1.54a4.44,4.44,0,0,0,4.12,1.19,4.75,4.75,0,0,0,3.4-3c0-.09,3.74-8.59,10-8.59s8.8,5.38,8.94,5.69a4.8,4.8,0,0,0,8.77-3.88Z"/><path class="cls-2" d="M214.51,70.72a4.79,4.79,0,0,0,4.15,2.4h22.55a4.79,4.79,0,1,0,0-9.59H227L236,48a4.79,4.79,0,0,0-8.3-4.8L214.51,65.92A4.79,4.79,0,0,0,214.51,70.72Z"/><path class="cls-2" d="M27.93,120.27a4.82,4.82,0,0,0,.9.08h15.8a4.79,4.79,0,0,0,0-9.59H29.38c-.9-.25-3.22-1.15-3.22-3.56,0-2.58,2.58-4,3.71-4.47L64,102.59l.37,0c6.25-.52,18.07-4.44,18.07-15.61,0-11-11.1-15.34-17-16.1a5,5,0,0,0-.61,0H26.16a4.79,4.79,0,1,0,0,9.59H64.5c1.43.25,8.37,1.73,8.37,6.54s-8,5.89-9.14,6L29,93.15a4.8,4.8,0,0,0-1.37.21c-4.1,1.25-11,5.56-11,13.85C16.57,115.83,24,119.52,27.93,120.27Z"/><path class="cls-2" d="M64.7,110.77a4.79,4.79,0,0,0,0,9.59H82.1a4.79,4.79,0,0,0,0-9.59Z"/><path class="cls-2" d="M73.4,233.65H52.09a4.79,4.79,0,0,0,0,9.59H73.4a4.79,4.79,0,0,0,0-9.59Z"/><path class="cls-2" d="M67.34,254.79l-18.83,10A4.79,4.79,0,1,0,53,273.25l18.83-10a4.79,4.79,0,0,0-4.49-8.47Z"/><path class="cls-2" d="M94.94,269.39A4.79,4.79,0,0,0,89.22,273l-4.64,20.8a4.79,4.79,0,1,0,9.36,2.09l4.64-20.8A4.79,4.79,0,0,0,94.94,269.39Z"/><path class="cls-2" d="M130.05,261.08a4.79,4.79,0,1,0-7.48,6l13.33,16.63a4.79,4.79,0,0,0,7.48-6Z"/><path class="cls-2" d="M160.42,233.65H139.11a4.79,4.79,0,0,0,0,9.59h21.31a4.79,4.79,0,0,0,0-9.59Z"/><path class="cls-2" d="M39,175.63H21a4.79,4.79,0,1,0,0,9.59H39a4.79,4.79,0,1,0,0-9.59Z"/><path class="cls-2" d="M86.52,210.81a4.79,4.79,0,0,0,6.66-1.28l17.93-26.42a4.79,4.79,0,0,0-4-7.49H64.7a4.79,4.79,0,1,0,0,9.59h33.4L85.24,204.15A4.79,4.79,0,0,0,86.52,210.81Z"/></svg>