<?xml version="1.0" encoding="utf-8"?>
<!-- Generator: Adobe Illustrator 21.0.0, SVG Export Plug-In . SVG Version: 6.00 Build 0)  -->
<svg version="1.1" id="Layer_1" xmlns="http://www.w3.org/2000/svg" xmlns:xlink="http://www.w3.org/1999/xlink" x="0px" y="0px"
	 viewBox="0 0 310 310" style="enable-background:new 0 0 310 310;" xml:space="preserve">
<style type="text/css">
	.st0{fill:#FFFFFF;}
	.st1{fill:#80CEE5;}
	.st2{fill:#FE4A49;}
</style>
<title>lightning</title>
<path class="st0" d="M253.8,91.2c-0.9-2.1-2.9-3.4-5.1-3.4h-69l43.4-67c1.6-2.6,0.9-6-1.6-7.6c-2.2-1.4-5.2-1.1-7,0.8l0,0
	L86.6,149.9c-2.1,2.2-2,5.7,0.2,7.8c1.4,1.3,3.3,1.8,5.1,1.3l70.6-17.1L92.4,242.8c-1.7,2.5-1.1,5.9,1.4,7.6c2.2,1.5,5.1,1.2,7-0.6
	L252.6,97.2C254.2,95.7,254.7,93.3,253.8,91.2z M126.8,210.1l49.8-71.6c1.7-2.5,1.1-5.9-1.4-7.7c-0.9-0.6-2-1-3.1-1
	c-0.4,0-0.9,0.1-1.3,0.2L103,146.4l87.5-93l-23,35.5c-1.7,2.5-0.9,6,1.6,7.6c0.9,0.6,1.9,0.9,3,0.9h66.7L126.8,210.1z"/>
<path class="st1" d="M40.2,45.4c2.4,1.1,5.2,0.1,6.4-2.2c0.4-0.8,9.2-18.3,32.9-18.3c23.1,0,28.4,14.4,28.6,15
	c0.7,2.3,3,3.6,5.3,3.3c3-0.5,11.7-0.9,16.2,2.9c2.1,1.8,3.2,4.5,3.2,8.2c0,15.4-10.2,16.6-13.4,16.6c-0.1,0-12.5-0.2-12.5-8
	c0-1.2,0.2-2.8,1-3.4c1.1-0.9,3.6-0.8,4.4-0.6c2.6,0.6,5.2-1,5.8-3.6c0.6-2.6-1-5.2-3.6-5.8l0,0c-0.8-0.2-7.6-1.6-12.6,2.4
	c-2.1,1.7-4.7,5-4.7,11c0,12.9,13.2,17.5,22.1,17.5c8.5,0,23-5.5,23-26.2c0-8.2-3.6-13-6.6-15.5c-6.3-5.3-15.3-5.7-20.3-5.4
	c-3.5-6.2-13.1-18-36-18c-29.9,0-41.1,22.8-41.6,23.8C36.8,41.4,37.8,44.3,40.2,45.4z"/>
<path class="st1" d="M237.1,167.2c-19.8,0-28.4,10-31.6,15.6c-4.5-0.2-12.2,0.2-17.7,4.9c-2.7,2.3-5.9,6.6-5.9,13.9
	c0,18.4,12.9,23.4,20.6,23.4c7.9,0,19.8-4.2,19.8-15.9c0-5.5-2.3-8.4-4.3-10c-4.6-3.6-10.8-2.3-11.4-2.2c-2.6,0.6-4.2,3.2-3.6,5.7
	c0.6,2.6,3.2,4.2,5.7,3.6l0,0c0.9-0.2,2.7-0.2,3.4,0.4c0.5,0.7,0.8,1.6,0.6,2.5c0,1.6-0.4,3.4-3.6,4.8c-2.1,0.9-4.3,1.4-6.5,1.4
	c-3.3,0-11-1.3-11-13.8c0-3,0.8-5.2,2.5-6.6c3.7-3.2,11.1-2.8,13.6-2.4c2.3,0.4,4.6-0.9,5.4-3.2c0.2-0.5,4.6-12.6,24.2-12.6
	c20.1,0,27.6,14.8,28,15.5c1.3,2.3,4.2,3.2,6.5,2c2.2-1.2,3.1-3.8,2.2-6.1C273.3,187.4,263.4,167.2,237.1,167.2z"/>
<path class="st1" d="M295.3,117.9c-0.2-0.5-5.1-11.4-17.7-11.4c-8.2,0-13.5,5.8-16.4,10.1c-2.8-0.8-5.7-1.3-8.7-1.2
	c-4.8,0-9.3,2.1-12.3,5.9c-2.4,3-3.8,6.7-3.9,10.6c0.1,4.1,1.4,8.1,3.8,11.4c2.4,3.2,6.8,6.9,14.6,6.9l29.4,0.9h0.1
	c2.6,0,4.8-2.1,4.9-4.7c0-2.6-2.1-4.8-4.7-4.9l-29.5-0.9h-0.1c-8.8,0-8.9-8.4-8.9-8.7c0-1.8,1.6-6.9,6.6-6.9c4.9,0,7.1,1.3,7.6,1.5
	c1.1,1.1,2.6,1.5,4.1,1.2c1.6-0.4,2.8-1.5,3.4-3c0-0.1,3.7-8.6,10-8.6s8.8,5.4,8.9,5.7c1.2,2.4,4.1,3.3,6.4,2.2
	C295.2,122.8,296.2,120.2,295.3,117.9L295.3,117.9z"/>
<path class="st1" d="M214.5,70.7c0.9,1.5,2.4,2.4,4.1,2.4h22.6c2.6,0,4.8-2.1,4.8-4.8c0-2.6-2.1-4.8-4.8-4.8l0,0H227l9-15.5
	c1.3-2.3,0.5-5.2-1.8-6.5s-5.2-0.5-6.6,1.8l0,0L214.4,66C213.7,67.4,213.7,69.2,214.5,70.7z"/>
<path class="st1" d="M27.9,120.3c0.3,0.1,0.6,0.1,0.9,0.1h15.8c2.6,0,4.8-2.1,4.8-4.8c0-2.6-2.1-4.8-4.8-4.8H29.4
	c-0.9-0.2-3.2-1.2-3.2-3.6c0-2.6,2.6-4,3.7-4.5l34.1-0.1h0.4c6.2-0.5,18.1-4.4,18.1-15.6c0-11-11.1-15.3-17-16.1c-0.2,0-0.4,0-0.6,0
	H26.2c-2.6,0-4.8,2.1-4.8,4.8c0,2.6,2.1,4.8,4.8,4.8h38.3c1.4,0.2,8.4,1.7,8.4,6.5s-8,5.9-9.1,6L29,93.2c-0.5,0-0.9,0.1-1.4,0.2
	c-4.1,1.2-11,5.6-11,13.8C16.6,115.8,24,119.5,27.9,120.3z"/>
<path class="st1" d="M64.7,110.8c-2.6,0-4.8,2.1-4.8,4.8c0,2.6,2.1,4.8,4.8,4.8h17.4c2.6,0,4.8-2.1,4.8-4.8s-2.1-4.8-4.8-4.8H64.7z"
	/>
<path class="st2" d="M73.4,233.6H52.1c-2.6,0-4.8,2.1-4.8,4.8s2.1,4.8,4.8,4.8h21.3c2.6,0,4.8-2.1,4.8-4.8S76,233.6,73.4,233.6z"/>
<path class="st2" d="M67.3,254.8l-18.8,10c-2.4,1.2-3.3,4.1-2.1,6.4c1.2,2.4,4.1,3.3,6.4,2.1c0.1,0,0.1-0.1,0.2-0.1l18.8-10
	c2.3-1.2,3.2-4.1,2-6.5C72.6,254.4,69.7,253.5,67.3,254.8L67.3,254.8z"/>
<path class="st2" d="M94.9,269.4c-2.6-0.6-5.1,1-5.7,3.6l-4.6,20.8c-0.6,2.6,1.1,5.1,3.6,5.7c2.6,0.6,5.1-1.1,5.7-3.6l4.6-20.8
	C99.1,272.5,97.5,270,94.9,269.4z"/>
<path class="st2" d="M130.1,261.1c-1.7-2.1-4.7-2.4-6.7-0.7c-2.1,1.7-2.4,4.7-0.7,6.7l13.3,16.6c1.7,2.1,4.7,2.4,6.7,0.7
	c2.1-1.7,2.4-4.7,0.7-6.7L130.1,261.1z"/>
<path class="st2" d="M160.4,233.6h-21.3c-2.6,0-4.8,2.1-4.8,4.8s2.1,4.8,4.8,4.8h21.3c2.6,0,4.8-2.1,4.8-4.8
	S163.1,233.6,160.4,233.6z"/>
<path class="st1" d="M39,175.6H21c-2.6,0-4.8,2.1-4.8,4.8s2.1,4.8,4.8,4.8l0,0h18c2.6,0,4.8-2.1,4.8-4.8S41.6,175.6,39,175.6z"/>
<path class="st1" d="M86.5,210.8c2.2,1.5,5.2,0.9,6.7-1.3l0,0l17.9-26.4c1.5-2.2,0.9-5.2-1.3-6.7c-0.8-0.6-1.8-0.8-2.7-0.8H64.7
	c-2.6,0-4.8,2.1-4.8,4.8s2.1,4.8,4.8,4.8h33.4l-12.9,18.9C83.8,206.3,84.3,209.3,86.5,210.8L86.5,210.8z"/>
</svg>
